<?xml version="1.0" encoding="UTF-8" standalone="no"?>
<!-- Created with Inkscape (http://www.inkscape.org/) -->

<svg
   xmlns:dc="http://purl.org/dc/elements/1.1/"
   xmlns:cc="http://creativecommons.org/ns#"
   xmlns:rdf="http://www.w3.org/1999/02/22-rdf-syntax-ns#"
   xmlns:svg="http://www.w3.org/2000/svg"
   xmlns="http://www.w3.org/2000/svg"
   xmlns:xlink="http://www.w3.org/1999/xlink"
   xmlns:sodipodi="http://sodipodi.sourceforge.net/DTD/sodipodi-0.dtd"
   xmlns:inkscape="http://www.inkscape.org/namespaces/inkscape"
   width="800"
   height="600"
   id="svg2"
   version="1.1"
   inkscape:version="0.48.5 r10040"
   sodipodi:docname="titleScreen.svg"
   inkscape:export-filename="/Users/bwencke/bar-crawl-rpg/artwork/titleScreen.png"
   inkscape:export-xdpi="90"
   inkscape:export-ydpi="90">
  <defs
     id="defs4" />
  <sodipodi:namedview
     id="base"
     pagecolor="#ffffff"
     bordercolor="#666666"
     borderopacity="1.0"
     inkscape:pageopacity="0.0"
     inkscape:pageshadow="2"
     inkscape:zoom="1.2433333"
     inkscape:cx="400"
     inkscape:cy="300"
     inkscape:document-units="px"
     inkscape:current-layer="layer1"
     showgrid="false"
     width="800px"
     inkscape:window-width="1680"
     inkscape:window-height="937"
     inkscape:window-x="0"
     inkscape:window-y="0"
     inkscape:window-maximized="1" />
  <metadata
     id="metadata7">
    <rdf:RDF>
      <cc:Work
         rdf:about="">
        <dc:format>image/svg+xml</dc:format>
        <dc:type
           rdf:resource="http://purl.org/dc/dcmitype/StillImage" />
        <dc:title></dc:title>
      </cc:Work>
    </rdf:RDF>
  </metadata>
  <g
     inkscape:label="Layer 1"
     inkscape:groupmode="layer"
     id="layer1"
     transform="translate(0,-452.36218)">
    <rect
       style="fill:#252525;fill-opacity:1;stroke:none"
       id="rect3824"
       width="801.07239"
       height="75.603218"
       x="-0.80428952"
       y="0.80428952"
       transform="translate(0,452.36218)" />
    <rect
       style="fill:#e5c45b;fill-opacity:1;stroke:none"
       id="rect3788"
       width="801.07245"
       height="538.87396"
       x="5.1646703e-07"
       y="62.734585"
       transform="translate(0,452.36218)" />
    <text
       xml:space="preserve"
       style="font-size:40px;font-style:normal;font-weight:normal;line-height:125%;letter-spacing:0px;word-spacing:0px;fill:#ffffff;fill-opacity:1;stroke:none;font-family:avenir;-inkscape-font-specification:avenir"
       x="131.90349"
       y="752.36212"
       id="text3792"
       sodipodi:linespacing="125%"><tspan
         sodipodi:role="line"
         id="tspan3794"
         x="131.90349"
         y="752.36212"
         style="font-size:56px;fill:#ffffff;fill-opacity:1;font-family:pixelmix;-inkscape-font-specification:pixelmix">o</tspan></text>
    <text
       sodipodi:linespacing="125%"
       id="text3796"
       y="802.22809"
       x="269.43701"
       style="font-size:59.302948px;font-style:normal;font-weight:normal;line-height:125%;letter-spacing:0px;word-spacing:0px;fill:#ffffff;fill-opacity:1;stroke:none;font-family:avenir;-inkscape-font-specification:avenir"
       xml:space="preserve"><tspan
         style="font-size:83.02413177px;fill:#ffffff;fill-opacity:1;font-family:pixelmix;-inkscape-font-specification:pixelmix"
         y="802.22809"
         x="269.43701"
         id="tspan3798"
         sodipodi:role="line">o</tspan></text>
    <text
       xml:space="preserve"
       style="font-size:30.80812073px;font-style:normal;font-weight:normal;line-height:125%;letter-spacing:0px;word-spacing:0px;fill:#ffffff;fill-opacity:1;stroke:none;font-family:avenir;-inkscape-font-specification:avenir"
       x="211.52817"
       y="877.02704"
       id="text3800"
       sodipodi:linespacing="125%"><tspan
         sodipodi:role="line"
         id="tspan3802"
         x="211.52817"
         y="877.02704"
         style="font-size:43.13137054px;fill:#ffffff;fill-opacity:1;font-family:pixelmix;-inkscape-font-specification:pixelmix">o</tspan></text>
    <text
       sodipodi:linespacing="125%"
       id="text3804"
       y="796.59808"
       x="493.83377"
       style="font-size:30.80812073px;font-style:normal;font-weight:normal;line-height:125%;letter-spacing:0px;word-spacing:0px;fill:#ffffff;fill-opacity:1;stroke:none;font-family:avenir;-inkscape-font-specification:avenir"
       xml:space="preserve"><tspan
         style="font-size:43.13137054px;fill:#ffffff;fill-opacity:1;font-family:pixelmix;-inkscape-font-specification:pixelmix"
         y="796.59808"
         x="493.83377"
         id="tspan3806"
         sodipodi:role="line">o</tspan></text>
    <text
       xml:space="preserve"
       style="font-size:64.81807709px;font-style:normal;font-weight:normal;line-height:125%;letter-spacing:0px;word-spacing:0px;fill:#ffffff;fill-opacity:1;stroke:none;font-family:avenir;-inkscape-font-specification:avenir"
       x="719.03485"
       y="626.89301"
       id="text3808"
       sodipodi:linespacing="125%"><tspan
         sodipodi:role="line"
         id="tspan3810"
         x="719.03485"
         y="626.89301"
         style="font-size:90.74530792px;fill:#ffffff;fill-opacity:1;font-family:pixelmix;-inkscape-font-specification:pixelmix">o</tspan></text>
    <text
       sodipodi:linespacing="125%"
       id="text3812"
       y="983.99756"
       x="608.84717"
       style="font-size:32.64649582px;font-style:normal;font-weight:normal;line-height:125%;letter-spacing:0px;word-spacing:0px;fill:#ffffff;fill-opacity:1;stroke:none;font-family:avenir;-inkscape-font-specification:avenir"
       xml:space="preserve"><tspan
         style="font-size:45.70509338px;fill:#ffffff;fill-opacity:1;font-family:pixelmix;-inkscape-font-specification:pixelmix"
         y="983.99756"
         x="608.84717"
         id="tspan3814"
         sodipodi:role="line">o</tspan></text>
    <text
       xml:space="preserve"
       style="font-size:22.53542709px;font-style:normal;font-weight:normal;line-height:125%;letter-spacing:0px;word-spacing:0px;fill:#ffffff;fill-opacity:1;stroke:none;font-family:avenir;-inkscape-font-specification:avenir"
       x="373.99463"
       y="998.47479"
       id="text3816"
       sodipodi:linespacing="125%"><tspan
         sodipodi:role="line"
         id="tspan3818"
         x="373.99463"
         y="998.47479"
         style="font-size:31.54959679px;fill:#ffffff;fill-opacity:1;font-family:pixelmix;-inkscape-font-specification:pixelmix">o</tspan></text>
    <text
       sodipodi:linespacing="125%"
       id="text3820"
       y="1029.842"
       x="86.863258"
       style="font-size:17.93948746px;font-style:normal;font-weight:normal;line-height:125%;letter-spacing:0px;word-spacing:0px;fill:#ffffff;fill-opacity:1;stroke:none;font-family:avenir;-inkscape-font-specification:avenir"
       xml:space="preserve"><tspan
         style="font-size:25.11528015px;fill:#ffffff;fill-opacity:1;font-family:pixelmix;-inkscape-font-specification:pixelmix"
         y="1029.842"
         x="86.863258"
         id="tspan3822"
         sodipodi:role="line">o</tspan></text>
    <rect
       style="fill:#ffffff;fill-opacity:1;stroke:none"
       id="rect3826"
       width="254.95978"
       height="50.670242"
       x="22.520107"
       y="503.8367" />
    <rect
       y="492.57663"
       x="240.48257"
       height="50.670242"
       width="49.061657"
       id="rect3830"
       style="fill:#ffffff;fill-opacity:1;stroke:none" />
    <rect
       style="fill:#ffffff;fill-opacity:1;stroke:none"
       id="rect3832"
       width="103.75335"
       height="50.670242"
       x="284.71851"
       y="486.94662" />
    <rect
       y="476.49084"
       x="382.03754"
       height="50.670242"
       width="121.44774"
       id="rect3834"
       style="fill:#ffffff;fill-opacity:1;stroke:none" />
    <rect
       style="fill:#ffffff;fill-opacity:1;stroke:none"
       id="rect3836"
       width="51.474548"
       height="50.670242"
       x="496.24664"
       y="499.01096" />
    <rect
       y="499.01096"
       x="496.24664"
       height="50.670242"
       width="51.474548"
       id="rect3838"
       style="fill:#ffffff;fill-opacity:1;stroke:none" />
    <rect
       style="fill:#ffffff;fill-opacity:1;stroke:none"
       id="rect3859"
       width="213.94104"
       height="50.670242"
       x="546.11255"
       y="507.85815"
       inkscape:transform-center-x="213.94097"
       inkscape:transform-center-y="-12.064343" />
    <rect
       inkscape:transform-center-y="-12.064343"
       inkscape:transform-center-x="89.276118"
       y="515.09674"
       x="467.29221"
       height="50.670242"
       width="89.276169"
       id="rect3861"
       style="fill:#ffffff;fill-opacity:1;stroke:none" />
    <rect
       style="fill:#ffffff;fill-opacity:1;stroke:none"
       id="rect3863"
       width="89.276169"
       height="50.670242"
       x="384.45038"
       y="522.33533"
       inkscape:transform-center-x="89.276118"
       inkscape:transform-center-y="-12.064343" />
    <rect
       inkscape:transform-center-y="-12.064343"
       inkscape:transform-center-x="127.882"
       y="518.3139"
       x="257.37262"
       height="50.670242"
       width="127.88206"
       id="rect3865"
       style="fill:#ffffff;fill-opacity:1;stroke:none" />
    <rect
       style="fill:#ffffff;fill-opacity:1;stroke:none"
       id="rect3867"
       width="61.930313"
       height="50.670242"
       x="503.48523"
       y="536.81256"
       inkscape:transform-center-x="61.930288"
       inkscape:transform-center-y="-12.064343" />
    <rect
       inkscape:transform-center-y="-12.064343"
       inkscape:transform-center-x="61.930288"
       y="552.09406"
       x="550.93829"
       height="50.670242"
       width="61.930313"
       id="rect3869"
       style="fill:#ffffff;fill-opacity:1;stroke:none" />
    <rect
       style="fill:#ffffff;fill-opacity:1;stroke:none"
       id="rect3871"
       width="40.214497"
       height="169.70511"
       x="538.87396"
       y="569.78845"
       inkscape:transform-center-x="40.214479"
       inkscape:transform-center-y="-40.405968" />
    <rect
       inkscape:transform-center-y="-55.917268"
       inkscape:transform-center-x="14.477225"
       y="607.59009"
       x="564.61121"
       height="234.85255"
       width="14.477231"
       id="rect3873"
       style="fill:#ffffff;fill-opacity:1;stroke:none" />
    <rect
       style="fill:#ffffff;fill-opacity:1;stroke:none"
       id="rect3875"
       width="32.1716"
       height="183.37802"
       x="551.74255"
       y="580.24426"
       inkscape:transform-center-x="32.171611"
       inkscape:transform-center-y="-43.66141" />
    <rect
       inkscape:transform-center-y="-9.1918799"
       inkscape:transform-center-x="213.94097"
       y="513.48816"
       x="624.12866"
       height="38.6059"
       width="213.94104"
       id="rect3877"
       style="fill:#ffffff;fill-opacity:1;stroke:none" />
    <rect
       y="511.87961"
       x="-32.975872"
       height="40.214478"
       width="254.95978"
       id="rect3879"
       style="fill:#ffffff;fill-opacity:1;stroke:none" />
    <rect
       style="fill:#000000;fill-opacity:0.0990566;stroke:none"
       id="rect3881"
       width="164.07507"
       height="446.38071"
       x="113.40483"
       y="618.8501" />
    <rect
       y="641.37018"
       x="328.15015"
       height="446.38071"
       width="164.07507"
       id="rect3885"
       style="fill:#000000;fill-opacity:0.09803922;stroke:none" />
    <rect
       style="fill:#000000;fill-opacity:0.09803922;stroke:none"
       id="rect3887"
       width="164.07507"
       height="446.38071"
       x="554.15552"
       y="598.74286" />
    <g
       id="g3779"
       transform="matrix(1.7191533,0,0,1.7191533,-95.194619,-431.45287)">
      <path
         d="m 364.3125,628.28125 a 4.5502039,4.5502039 0 0 0 -4.5625,4.5625 l 0,15.75 a 4.5502039,4.5502039 0 0 0 4.5625,4.5625 l 2.25,0 a 4.5502039,4.5502039 0 0 0 3.375,-1.53125 4.5502039,4.5502039 0 0 0 3.375,1.53125 l 2.25,0 A 4.5502039,4.5502039 0 0 0 376.71875,653 a 4.5502039,4.5502039 0 0 0 1.09375,0.15625 l 2.25,0 a 4.5502039,4.5502039 0 0 0 4.5625,-4.5625 l 0,-2.1875 2.125,0 a 4.5502039,4.5502039 0 0 0 2.6875,4.09375 4.5502039,4.5502039 0 0 0 4.125,2.65625 l 9,0 a 4.5502039,4.5502039 0 0 0 4.5625,-4.5625 l 0,-9 a 4.5502039,4.5502039 0 0 0 -0.15625,-1.15625 4.5502039,4.5502039 0 0 0 0.15625,-1.09375 l 0,-2.25 a 4.5502039,4.5502039 0 0 0 -2.6875,-4.15625 4.5502039,4.5502039 0 0 0 -4.125,-2.65625 l -6.75,0 a 4.5502039,4.5502039 0 0 0 -3.375,1.53125 4.5502039,4.5502039 0 0 0 -3.375,-1.53125 l -9,0 a 4.5502039,4.5502039 0 0 0 -2.25,0.59375 4.5502039,4.5502039 0 0 0 -2.25,-0.59375 l -9,0 z"
         inkscape:href="#text3761"
         id="path3777"
         style="font-size:40px;font-style:normal;font-weight:normal;line-height:125%;letter-spacing:0px;word-spacing:0px;fill:#0b40ff;fill-opacity:1;stroke:none;font-family:avenir;-inkscape-font-specification:avenir"
         xlink:href="#text3761"
         inkscape:original="M 364.3125 632.84375 L 364.3125 648.59375 L 366.5625 648.59375 L 366.5625 641.84375 L 368.8125 641.84375 L 368.8125 644.09375 L 371.0625 644.09375 L 371.0625 641.84375 L 373.3125 641.84375 L 373.3125 639.59375 L 366.5625 639.59375 L 366.5625 635.09375 L 373.3125 635.09375 L 373.3125 632.84375 L 364.3125 632.84375 z M 373.3125 635.09375 L 373.3125 639.59375 L 375.5625 639.59375 L 375.5625 635.09375 L 373.3125 635.09375 z M 371.0625 644.09375 L 371.0625 646.34375 L 373.3125 646.34375 L 373.3125 644.09375 L 371.0625 644.09375 z M 373.3125 646.34375 L 373.3125 648.59375 L 375.5625 648.59375 L 375.5625 646.34375 L 373.3125 646.34375 z M 377.8125 632.84375 L 377.8125 648.59375 L 380.0625 648.59375 L 380.0625 641.84375 L 386.8125 641.84375 L 386.8125 639.59375 L 380.0625 639.59375 L 380.0625 635.09375 L 386.8125 635.09375 L 386.8125 632.84375 L 377.8125 632.84375 z M 386.8125 635.09375 L 386.8125 639.59375 L 389.0625 639.59375 L 389.0625 635.09375 L 386.8125 635.09375 z M 393.5625 632.84375 L 393.5625 635.09375 L 400.3125 635.09375 L 400.3125 632.84375 L 393.5625 632.84375 z M 400.3125 635.09375 L 400.3125 637.34375 L 402.5625 637.34375 L 402.5625 635.09375 L 400.3125 635.09375 z M 393.5625 635.09375 L 391.3125 635.09375 L 391.3125 646.34375 L 393.5625 646.34375 L 393.5625 635.09375 z M 393.5625 646.34375 L 393.5625 648.59375 L 402.5625 648.59375 L 402.5625 639.59375 L 395.8125 639.59375 L 395.8125 641.84375 L 400.3125 641.84375 L 400.3125 646.34375 L 393.5625 646.34375 z "
         inkscape:radius="4.5497489"
         sodipodi:type="inkscape:offset" />
      <text
         sodipodi:linespacing="125%"
         id="text3761"
         y="648.60883"
         x="364.31949"
         style="font-size:40px;font-style:normal;font-weight:normal;line-height:125%;letter-spacing:0px;word-spacing:0px;fill:#ffca23;fill-opacity:1;stroke:none;font-family:avenir;-inkscape-font-specification:avenir"
         xml:space="preserve"><tspan
           style="font-size:18px;fill:#ffca23;fill-opacity:1;font-family:pixelmix;-inkscape-font-specification:pixelmix"
           y="648.60883"
           x="364.31949"
           id="tspan3763"
           sodipodi:role="line">RPG</tspan></text>
      <path
         d="m 166.5,548.5 c -0.1422,-3.4e-4 -0.63971,0.0176 -0.78125,0.0312 -0.14154,0.0136 -0.64174,0.0975 -0.78125,0.125 -0.13951,0.0275 -0.64511,0.14643 -0.78125,0.1875 -0.13614,0.0411 -0.58731,0.19574 -0.71875,0.25 -0.13144,0.0543 -0.59328,0.27683 -0.71875,0.34375 -0.12547,0.0669 -0.56922,0.32732 -0.6875,0.40625 -0.11828,0.0789 -0.51505,0.37857 -0.625,0.46875 -0.10995,0.0902 -0.4932,0.4307 -0.59375,0.53125 -0.10055,0.10055 -0.44107,0.4838 -0.53125,0.59375 -0.0902,0.10995 -0.38982,0.50672 -0.46875,0.625 -0.0789,0.11828 -0.33933,0.56203 -0.40625,0.6875 -0.0669,0.12547 -0.28949,0.58731 -0.34375,0.71875 -0.0543,0.13144 -0.20893,0.58261 -0.25,0.71875 -0.0411,0.13614 -0.16001,0.64174 -0.1875,0.78125 -0.0275,0.13951 -0.11136,0.63971 -0.125,0.78125 -0.0136,0.14154 -0.0316,0.63905 -0.0312,0.78125 l 0,35 c -3.4e-4,0.1422 0.0176,0.63971 0.0312,0.78125 0.0136,0.14154 0.0975,0.64174 0.125,0.78125 0.0275,0.13951 0.14643,0.64511 0.1875,0.78125 0.0411,0.13614 0.19574,0.58731 0.25,0.71875 0.0543,0.13144 0.27683,0.59328 0.34375,0.71875 0.0669,0.12547 0.32732,0.56922 0.40625,0.6875 0.0789,0.11828 0.37857,0.51505 0.46875,0.625 0.0902,0.10995 0.4307,0.4932 0.53125,0.59375 0.10055,0.10055 0.4838,0.44107 0.59375,0.53125 0.10995,0.0902 0.50672,0.38982 0.625,0.46875 0.11828,0.0789 0.56203,0.33933 0.6875,0.40625 0.12547,0.0669 0.58731,0.28949 0.71875,0.34375 0.13144,0.0543 0.58261,0.20893 0.71875,0.25 0.13614,0.0411 0.64174,0.16001 0.78125,0.1875 0.13951,0.0275 0.63971,0.11136 0.78125,0.125 0.14154,0.0136 0.63905,0.0316 0.78125,0.0312 l 20,0 c 0.17056,-1.9e-4 0.76815,-0.0422 0.9375,-0.0625 0.16935,-0.0203 0.77172,-0.11615 0.9375,-0.15625 0.16578,-0.0401 0.74635,-0.22189 0.90625,-0.28125 0.1599,-0.0594 0.72321,-0.29721 0.875,-0.375 0.15179,-0.0778 0.67093,-0.40486 0.8125,-0.5 0.10098,-0.0679 0.33546,-0.25331 0.53125,-0.40625 0.19579,0.15294 0.43027,0.33838 0.53125,0.40625 0.14157,0.0951 0.66071,0.42221 0.8125,0.5 0.15179,0.0778 0.7151,0.31564 0.875,0.375 0.1599,0.0594 0.74047,0.24115 0.90625,0.28125 0.16578,0.0401 0.76815,0.13596 0.9375,0.15625 0.16935,0.0203 0.76694,0.0623 0.9375,0.0625 l 30,0 a 1.8409057,1.8409057 0 0 0 0.0312,0 c 0.15095,-0.002 0.66257,-0.0449 0.8125,-0.0625 0.14993,-0.0176 0.69647,-0.0919 0.84375,-0.125 0.14728,-0.0331 0.66949,-0.20167 0.8125,-0.25 0.14301,0.0483 0.66522,0.21686 0.8125,0.25 0.14728,0.0331 0.69382,0.10741 0.84375,0.125 0.14993,0.0176 0.66155,0.0607 0.8125,0.0625 a 1.8409057,1.8409057 0 0 0 0.0312,0 l 10,0 c 0.10475,-1.3e-4 0.48928,-0.0235 0.59375,-0.0312 0.10447,-0.008 0.45887,-0.0472 0.5625,-0.0625 0.10363,-0.0153 0.46025,-0.071 0.5625,-0.0937 0.10225,-0.0227 0.46216,-0.12615 0.5625,-0.15625 0.10034,-0.0301 0.46461,-0.15021 0.5625,-0.1875 0.0979,-0.0373 0.43632,-0.17446 0.53125,-0.21875 0.0772,-0.036 0.30385,-0.14822 0.4375,-0.21875 l 0,19.28125 c -3.3e-4,0.12614 0.0206,0.56181 0.0312,0.6875 0.0107,0.12569 0.0721,0.56322 0.0937,0.6875 0.0216,0.12428 0.12389,0.56558 0.15625,0.6875 0.0324,0.12192 0.14462,0.56887 0.1875,0.6875 0.0429,0.11863 0.22819,0.51056 0.28125,0.625 0.0531,0.11444 0.24966,0.51563 0.3125,0.625 0.0628,0.10937 0.30285,0.49028 0.375,0.59375 0.0721,0.10347 0.3566,0.46572 0.4375,0.5625 0.0809,0.0968 0.37971,0.44189 0.46875,0.53125 0.089,0.0894 0.40351,0.3875 0.5,0.46875 0.0965,0.0812 0.45929,0.33373 0.5625,0.40625 0.10321,0.0725 0.4846,0.31176 0.59375,0.375 0.10915,0.0632 0.51075,0.29028 0.625,0.34375 0.11425,0.0535 0.50652,0.2067 0.625,0.25 0.0325,0.0119 0.12138,0.0408 0.1875,0.0625 0.0217,0.0661 0.0506,0.15505 0.0625,0.1875 0.0433,0.11848 0.19653,0.51075 0.25,0.625 0.0535,0.11425 0.28051,0.51585 0.34375,0.625 0.0632,0.10915 0.30248,0.49054 0.375,0.59375 0.0725,0.10321 0.325,0.46601 0.40625,0.5625 0.0813,0.0965 0.37939,0.41096 0.46875,0.5 0.0894,0.089 0.43447,0.38785 0.53125,0.46875 0.0968,0.0809 0.45903,0.36535 0.5625,0.4375 0.10347,0.0721 0.48438,0.31216 0.59375,0.375 0.10937,0.0628 0.51056,0.25944 0.625,0.3125 0.11444,0.0531 0.50637,0.23837 0.625,0.28125 0.11863,0.0429 0.56558,0.15514 0.6875,0.1875 0.12192,0.0324 0.56322,0.13465 0.6875,0.15625 0.12428,0.0216 0.56181,0.0831 0.6875,0.0937 0.12569,0.0107 0.56136,0.0316 0.6875,0.0312 l 15,0 c 0.17056,-1.9e-4 0.76815,-0.0422 0.9375,-0.0625 0.16935,-0.0203 0.77172,-0.11615 0.9375,-0.15625 0.16578,-0.0401 0.74635,-0.22189 0.90625,-0.28125 0.1599,-0.0594 0.72321,-0.29721 0.875,-0.375 0.15179,-0.0778 0.67093,-0.40486 0.8125,-0.5 0.10098,-0.0679 0.33546,-0.25331 0.53125,-0.40625 0.19579,0.15294 0.43027,0.33838 0.53125,0.40625 0.14157,0.0951 0.66071,0.42221 0.8125,0.5 0.15179,0.0778 0.7151,0.31564 0.875,0.375 0.1599,0.0594 0.74047,0.24115 0.90625,0.28125 0.16578,0.0401 0.76815,0.13596 0.9375,0.15625 0.16935,0.0203 0.76694,0.0623 0.9375,0.0625 l 10,0 c 0.1422,3.4e-4 0.63971,-0.0176 0.78125,-0.0312 0.14154,-0.0136 0.64174,-0.0975 0.78125,-0.125 0.13951,-0.0275 0.64511,-0.14643 0.78125,-0.1875 0.13614,-0.0411 0.58731,-0.19574 0.71875,-0.25 0.13144,-0.0543 0.59328,-0.27683 0.71875,-0.34375 0.12547,-0.0669 0.56922,-0.32732 0.6875,-0.40625 0.11828,-0.0789 0.51505,-0.37857 0.625,-0.46875 0.10995,-0.0902 0.4932,-0.4307 0.59375,-0.53125 0.10055,-0.10055 0.44107,-0.4838 0.53125,-0.59375 0.0902,-0.10995 0.38982,-0.50672 0.46875,-0.625 0.0789,-0.11828 0.33933,-0.56203 0.40625,-0.6875 0.0669,-0.12547 0.28949,-0.58731 0.34375,-0.71875 0.0543,-0.13144 0.20893,-0.58261 0.25,-0.71875 0.0411,-0.13614 0.16001,-0.64174 0.1875,-0.78125 0.0275,-0.13951 0.11136,-0.63971 0.125,-0.78125 0.0136,-0.14154 0.0316,-0.63905 0.0312,-0.78125 l 0,-1 c 0.0628,0.10937 0.30285,0.49028 0.375,0.59375 0.0722,0.10347 0.3566,0.46572 0.4375,0.5625 0.0809,0.0968 0.37971,0.44189 0.46875,0.53125 0.089,0.0894 0.40351,0.3875 0.5,0.46875 0.0965,0.0812 0.45929,0.33373 0.5625,0.40625 0.10321,0.0725 0.4846,0.31176 0.59375,0.375 0.10915,0.0632 0.51075,0.29028 0.625,0.34375 0.11425,0.0535 0.50652,0.2067 0.625,0.25 0.0324,0.0119 0.12138,0.0408 0.1875,0.0625 0.0217,0.0661 0.0506,0.15505 0.0625,0.1875 0.0433,0.11848 0.19653,0.51075 0.25,0.625 0.0535,0.11425 0.28051,0.51585 0.34375,0.625 0.0632,0.10915 0.30248,0.49054 0.375,0.59375 0.0725,0.10321 0.325,0.46601 0.40625,0.5625 0.0813,0.0965 0.37939,0.41096 0.46875,0.5 0.0894,0.089 0.43447,0.38785 0.53125,0.46875 0.0968,0.0809 0.45903,0.36535 0.5625,0.4375 0.10347,0.0721 0.48438,0.31216 0.59375,0.375 0.10937,0.0628 0.51056,0.25944 0.625,0.3125 0.11444,0.0531 0.50637,0.23837 0.625,0.28125 0.11863,0.0429 0.56558,0.15514 0.6875,0.1875 0.12192,0.0324 0.56322,0.13465 0.6875,0.15625 0.12428,0.0216 0.56181,0.0831 0.6875,0.0937 0.12569,0.0107 0.56136,0.0316 0.6875,0.0312 l 30,0 c 0.17056,-1.9e-4 0.76815,-0.0422 0.9375,-0.0625 0.16935,-0.0203 0.77172,-0.11615 0.9375,-0.15625 0.16578,-0.0401 0.74635,-0.22189 0.90625,-0.28125 0.1599,-0.0594 0.72321,-0.29721 0.875,-0.375 0.15179,-0.0778 0.67093,-0.40486 0.8125,-0.5 0.10098,-0.0679 0.33546,-0.25331 0.53125,-0.40625 0.19579,0.15294 0.43027,0.33838 0.53125,0.40625 0.14157,0.0951 0.66071,0.42221 0.8125,0.5 0.15179,0.0778 0.7151,0.31564 0.875,0.375 0.1599,0.0594 0.74047,0.24115 0.90625,0.28125 0.16578,0.0401 0.76815,0.13596 0.9375,0.15625 0.16935,0.0203 0.76694,0.0623 0.9375,0.0625 l 10,0 a 1.8409057,1.8409057 0 0 0 0.0312,0 c 0.15095,-0.002 0.66257,-0.0449 0.8125,-0.0625 0.14993,-0.0176 0.69647,-0.0919 0.84375,-0.125 0.14728,-0.0331 0.66949,-0.20167 0.8125,-0.25 0.14301,0.0483 0.66522,0.21686 0.8125,0.25 0.14728,0.0331 0.69382,0.10741 0.84375,0.125 0.14993,0.0176 0.66155,0.0607 0.8125,0.0625 a 1.8409057,1.8409057 0 0 0 0.0312,0 l 10,0 c 0.17056,-1.9e-4 0.76815,-0.0422 0.9375,-0.0625 0.16935,-0.0203 0.77172,-0.11615 0.9375,-0.15625 0.16578,-0.0401 0.74635,-0.22189 0.90625,-0.28125 0.1599,-0.0594 0.72321,-0.29721 0.875,-0.375 0.15179,-0.0778 0.67093,-0.40486 0.8125,-0.5 0.10098,-0.0679 0.33546,-0.25331 0.53125,-0.40625 0.19579,0.15294 0.43027,0.33838 0.53125,0.40625 0.14157,0.0951 0.66071,0.42221 0.8125,0.5 0.15179,0.0778 0.7151,0.31564 0.875,0.375 0.1599,0.0594 0.74047,0.24115 0.90625,0.28125 0.16578,0.0401 0.76815,0.13596 0.9375,0.15625 0.16935,0.0203 0.76694,0.0623 0.9375,0.0625 l 20,0 c 0.1422,3.4e-4 0.63971,-0.0176 0.78125,-0.0312 0.14154,-0.0136 0.64174,-0.0975 0.78125,-0.125 0.13951,-0.0275 0.64511,-0.14643 0.78125,-0.1875 0.13614,-0.0411 0.58731,-0.19574 0.71875,-0.25 0.13144,-0.0543 0.59328,-0.27683 0.71875,-0.34375 0.12547,-0.0669 0.56922,-0.32732 0.6875,-0.40625 0.11828,-0.0789 0.51505,-0.37857 0.625,-0.46875 0.10995,-0.0902 0.4932,-0.4307 0.59375,-0.53125 0.10055,-0.10055 0.44107,-0.4838 0.53125,-0.59375 0.0902,-0.10995 0.38982,-0.50672 0.46875,-0.625 0.0789,-0.11828 0.33933,-0.56203 0.40625,-0.6875 0.0669,-0.12547 0.28949,-0.58731 0.34375,-0.71875 0.0543,-0.13144 0.20893,-0.58261 0.25,-0.71875 0.0411,-0.13614 0.16001,-0.64174 0.1875,-0.78125 0.0275,-0.13951 0.11136,-0.63971 0.125,-0.78125 0.0136,-0.14154 0.0316,-0.63905 0.0312,-0.78125 l 0,-5 c 5e-5,-0.12454 -0.0206,-0.56341 -0.0312,-0.6875 -0.0107,-0.12409 -0.0724,-0.5648 -0.0937,-0.6875 -0.0213,-0.1227 -0.12443,-0.56709 -0.15625,-0.6875 -0.0318,-0.12041 -0.14542,-0.53903 -0.1875,-0.65625 -0.0421,-0.11722 -0.22923,-0.51184 -0.28125,-0.625 -0.052,-0.11316 -0.25093,-0.51674 -0.3125,-0.625 -0.0616,-0.10826 -0.27308,-0.4912 -0.34375,-0.59375 -0.0707,-0.10255 -0.35826,-0.43517 -0.4375,-0.53125 -0.0792,-0.0961 -0.35027,-0.44235 -0.4375,-0.53125 -0.0872,-0.0889 -0.43669,-0.3877 -0.53125,-0.46875 -0.0946,-0.0811 -0.43006,-0.33364 -0.53125,-0.40625 -0.10119,-0.0726 -0.48668,-0.34263 -0.59375,-0.40625 -0.10707,-0.0636 -0.4816,-0.25834 -0.59375,-0.3125 -0.0846,-0.0409 -0.30016,-0.14837 -0.46875,-0.21875 l 0,-22.5625 c 3.4e-4,-0.1422 -0.0176,-0.63971 -0.0312,-0.78125 -0.0136,-0.14154 -0.0975,-0.64174 -0.125,-0.78125 -0.0275,-0.13951 -0.14643,-0.64511 -0.1875,-0.78125 -0.0411,-0.13614 -0.19574,-0.58731 -0.25,-0.71875 -0.0543,-0.13144 -0.27683,-0.59328 -0.34375,-0.71875 -0.0669,-0.12547 -0.32732,-0.56922 -0.40625,-0.6875 -0.0789,-0.11828 -0.37857,-0.51505 -0.46875,-0.625 -0.0902,-0.10995 -0.4307,-0.4932 -0.53125,-0.59375 -0.10055,-0.10055 -0.4838,-0.44107 -0.59375,-0.53125 -0.10995,-0.0902 -0.50672,-0.38982 -0.625,-0.46875 -0.11828,-0.0789 -0.56203,-0.33933 -0.6875,-0.40625 -0.12547,-0.0669 -0.58731,-0.28949 -0.71875,-0.34375 -0.13144,-0.0543 -0.58261,-0.20893 -0.71875,-0.25 -0.13614,-0.0411 -0.64174,-0.16001 -0.78125,-0.1875 -0.13951,-0.0275 -0.63971,-0.11136 -0.78125,-0.125 -0.14154,-0.0136 -0.63905,-0.0316 -0.78125,-0.0312 l -15,0 c -0.1422,-3.4e-4 -0.63971,0.0176 -0.78125,0.0312 -0.14154,0.0136 -0.64174,0.0975 -0.78125,0.125 -0.13951,0.0275 -0.64511,0.14643 -0.78125,0.1875 -0.13614,0.0411 -0.58731,0.19574 -0.71875,0.25 -0.13144,0.0543 -0.59328,0.27683 -0.71875,0.34375 -0.12547,0.0669 -0.56922,0.32732 -0.6875,0.40625 -0.11828,0.0789 -0.51505,0.37857 -0.625,0.46875 -0.10995,0.0902 -0.4932,0.4307 -0.59375,0.53125 -0.10055,0.10055 -0.44107,0.4838 -0.53125,0.59375 -0.0902,0.10995 -0.38982,0.50672 -0.46875,0.625 -0.0789,0.11828 -0.33933,0.56203 -0.40625,0.6875 -0.0669,0.12547 -0.28949,0.58731 -0.34375,0.71875 -0.0543,0.13144 -0.20893,0.58261 -0.25,0.71875 -0.0411,0.13614 -0.16001,0.64174 -0.1875,0.78125 -0.0275,0.13951 -0.11136,0.63971 -0.125,0.78125 -0.0136,0.14154 -0.0316,0.63905 -0.0312,0.78125 l 0,1.96875 -6.96875,0 c -0.1422,-3.4e-4 -0.63971,0.0176 -0.78125,0.0312 -0.14154,0.0136 -0.64174,0.0975 -0.78125,0.125 -0.13951,0.0275 -0.64511,0.14643 -0.78125,0.1875 -0.13614,0.0411 -0.58731,0.19574 -0.71875,0.25 -0.13144,0.0543 -0.59328,0.27683 -0.71875,0.34375 -0.12547,0.0669 -0.56922,0.32732 -0.6875,0.40625 -0.11828,0.0789 -0.51505,0.37857 -0.625,0.46875 -0.10995,0.0902 -0.4932,0.4307 -0.59375,0.53125 -0.10055,0.10055 -0.44107,0.4838 -0.53125,0.59375 -0.0902,0.10995 -0.38982,0.50672 -0.46875,0.625 -0.0789,0.11828 -0.33933,0.56203 -0.40625,0.6875 -0.0669,0.12547 -0.28949,0.58731 -0.34375,0.71875 -0.0141,0.0341 -0.0371,0.11893 -0.0625,0.1875 -0.0254,-0.0686 -0.0484,-0.15337 -0.0625,-0.1875 -0.0543,-0.13144 -0.27683,-0.59328 -0.34375,-0.71875 -0.0669,-0.12547 -0.32732,-0.56922 -0.40625,-0.6875 -0.0789,-0.11828 -0.37857,-0.51505 -0.46875,-0.625 -0.0902,-0.10995 -0.4307,-0.4932 -0.53125,-0.59375 -0.10055,-0.10055 -0.4838,-0.44107 -0.59375,-0.53125 -0.10995,-0.0902 -0.50672,-0.38982 -0.625,-0.46875 -0.11828,-0.0789 -0.56203,-0.33933 -0.6875,-0.40625 -0.12547,-0.0669 -0.58731,-0.28949 -0.71875,-0.34375 -0.13144,-0.0543 -0.58261,-0.20893 -0.71875,-0.25 -0.13614,-0.0411 -0.64174,-0.16001 -0.78125,-0.1875 -0.13951,-0.0275 -0.63971,-0.11136 -0.78125,-0.125 -0.14154,-0.0136 -0.63905,-0.0316 -0.78125,-0.0312 l -10,0 c -0.12454,-5e-5 -0.56341,0.0206 -0.6875,0.0312 -0.12409,0.0107 -0.5648,0.0724 -0.6875,0.0937 -0.1227,0.0213 -0.56709,0.12443 -0.6875,0.15625 -0.12041,0.0318 -0.53903,0.14542 -0.65625,0.1875 -0.11722,0.0421 -0.51184,0.22923 -0.625,0.28125 -0.11316,0.052 -0.51674,0.25093 -0.625,0.3125 -0.10826,0.0616 -0.4912,0.27308 -0.59375,0.34375 -0.10255,0.0707 -0.43517,0.35826 -0.53125,0.4375 -0.0961,0.0792 -0.44235,0.35027 -0.53125,0.4375 -0.0889,0.0872 -0.3877,0.43669 -0.46875,0.53125 -0.0811,0.0946 -0.33364,0.43006 -0.40625,0.53125 -0.0726,0.10119 -0.34263,0.48668 -0.40625,0.59375 -0.0636,0.10707 -0.25834,0.4816 -0.3125,0.59375 -0.0409,0.0846 -0.14837,0.30016 -0.21875,0.46875 l -0.125,0 c -0.0704,-0.16859 -0.17788,-0.38411 -0.21875,-0.46875 -0.0542,-0.11215 -0.24888,-0.48668 -0.3125,-0.59375 -0.0636,-0.10707 -0.33364,-0.49256 -0.40625,-0.59375 -0.0726,-0.10119 -0.3252,-0.43669 -0.40625,-0.53125 -0.0811,-0.0946 -0.37985,-0.44402 -0.46875,-0.53125 -0.0889,-0.0872 -0.43517,-0.35826 -0.53125,-0.4375 -0.0961,-0.0792 -0.4287,-0.36683 -0.53125,-0.4375 -0.10255,-0.0707 -0.48549,-0.28218 -0.59375,-0.34375 -0.10826,-0.0616 -0.51184,-0.26048 -0.625,-0.3125 -0.11316,-0.052 -0.50778,-0.23917 -0.625,-0.28125 -0.11722,-0.0421 -0.53584,-0.15568 -0.65625,-0.1875 -0.12041,-0.0318 -0.5648,-0.13492 -0.6875,-0.15625 -0.1227,-0.0213 -0.56341,-0.0831 -0.6875,-0.0937 -0.12409,-0.0107 -0.56296,-0.0313 -0.6875,-0.0312 l -15,0 c -0.1422,-3.4e-4 -0.63971,0.0176 -0.78125,0.0312 -0.14154,0.0136 -0.64174,0.0975 -0.78125,0.125 -0.13951,0.0275 -0.64511,0.14643 -0.78125,0.1875 -0.13614,0.0411 -0.58731,0.19574 -0.71875,0.25 -0.13144,0.0543 -0.59328,0.27683 -0.71875,0.34375 -0.12547,0.0669 -0.56922,0.32732 -0.6875,0.40625 -0.11828,0.0789 -0.51505,0.37857 -0.625,0.46875 -0.10995,0.0902 -0.4932,0.4307 -0.59375,0.53125 -0.10055,0.10055 -0.44107,0.4838 -0.53125,0.59375 -0.0902,0.10995 -0.38982,0.50672 -0.46875,0.625 -0.0789,0.11828 -0.33933,0.56203 -0.40625,0.6875 -0.0669,0.12547 -0.28949,0.58731 -0.34375,0.71875 -0.0141,0.0341 -0.0371,0.11893 -0.0625,0.1875 -0.0646,-0.16401 -0.17311,-0.43375 -0.21875,-0.53125 -0.0535,-0.11425 -0.28051,-0.51585 -0.34375,-0.625 -0.0632,-0.10915 -0.30248,-0.49054 -0.375,-0.59375 -0.0725,-0.10321 -0.325,-0.46601 -0.40625,-0.5625 -0.0813,-0.0965 -0.37939,-0.41096 -0.46875,-0.5 -0.0894,-0.089 -0.43447,-0.38785 -0.53125,-0.46875 -0.0968,-0.0809 -0.45903,-0.36535 -0.5625,-0.4375 -0.10347,-0.0721 -0.48438,-0.31216 -0.59375,-0.375 -0.10937,-0.0628 -0.51056,-0.25944 -0.625,-0.3125 -0.11444,-0.0531 -0.50637,-0.23837 -0.625,-0.28125 -0.11863,-0.0429 -0.56558,-0.15514 -0.6875,-0.1875 -0.12192,-0.0324 -0.56322,-0.13465 -0.6875,-0.15625 -0.12428,-0.0216 -0.56181,-0.0831 -0.6875,-0.0937 -0.12569,-0.0107 -0.56136,-0.0316 -0.6875,-0.0312 l -10,0 a 1.8409057,1.8409057 0 0 0 -0.0312,0 c -0.15095,0.002 -0.66257,0.0449 -0.8125,0.0625 -0.14993,0.0176 -0.69647,0.0919 -0.84375,0.125 -0.14728,0.0331 -0.66949,0.20167 -0.8125,0.25 -0.14301,-0.0483 -0.66522,-0.21686 -0.8125,-0.25 -0.14728,-0.0331 -0.69382,-0.10741 -0.84375,-0.125 -0.14993,-0.0176 -0.66155,-0.0607 -0.8125,-0.0625 a 1.8409057,1.8409057 0 0 0 -0.0312,0 l -2.5625,0 c -0.0353,-0.088 -0.0765,-0.17963 -0.0937,-0.21875 -0.0439,-0.0993 -0.23007,-0.46681 -0.28125,-0.5625 -0.0512,-0.0957 -0.25428,-0.40843 -0.3125,-0.5 -0.0582,-0.0916 -0.24757,-0.41305 -0.3125,-0.5 -0.0649,-0.087 -0.33498,-0.38692 -0.40625,-0.46875 -0.0713,-0.0818 -0.32904,-0.36126 -0.40625,-0.4375 -0.0772,-0.0762 -0.35478,-0.33602 -0.4375,-0.40625 -0.0827,-0.0702 -0.38099,-0.31118 -0.46875,-0.375 -0.0878,-0.0638 -0.4077,-0.2867 -0.5,-0.34375 -0.0923,-0.0571 -0.43492,-0.23129 -0.53125,-0.28125 -0.0963,-0.05 -0.43144,-0.20741 -0.53125,-0.25 -0.0998,-0.0426 -0.45978,-0.18378 -0.5625,-0.21875 -0.0217,-0.0661 -0.0506,-0.15505 -0.0625,-0.1875 -0.0433,-0.11848 -0.19653,-0.51075 -0.25,-0.625 -0.0535,-0.11425 -0.28051,-0.51585 -0.34375,-0.625 -0.0632,-0.10915 -0.30248,-0.49054 -0.375,-0.59375 -0.0725,-0.10321 -0.325,-0.46601 -0.40625,-0.5625 -0.0813,-0.0965 -0.37939,-0.41096 -0.46875,-0.5 -0.0894,-0.089 -0.43447,-0.38785 -0.53125,-0.46875 -0.0968,-0.0809 -0.45903,-0.36535 -0.5625,-0.4375 -0.10347,-0.0721 -0.48438,-0.31216 -0.59375,-0.375 -0.10937,-0.0628 -0.51056,-0.25944 -0.625,-0.3125 -0.11444,-0.0531 -0.50637,-0.23837 -0.625,-0.28125 -0.11863,-0.0429 -0.56558,-0.15514 -0.6875,-0.1875 -0.12192,-0.0324 -0.56322,-0.13465 -0.6875,-0.15625 -0.12428,-0.0216 -0.56181,-0.0831 -0.6875,-0.0937 -0.12569,-0.0107 -0.56136,-0.0316 -0.6875,-0.0312 l -9.5625,0 c 0.0758,-0.16528 0.15834,-0.33131 0.1875,-0.40625 0.0647,-0.16635 0.26878,-0.76444 0.3125,-0.9375 0.0437,-0.17306 0.16546,-0.79162 0.1875,-0.96875 0.022,-0.17713 0.0625,-0.8215 0.0625,-1 l 0,-5 c 3.3e-4,-0.12614 -0.0206,-0.56181 -0.0312,-0.6875 -0.0107,-0.12569 -0.0722,-0.56322 -0.0937,-0.6875 -0.0216,-0.12428 -0.12389,-0.56558 -0.15625,-0.6875 -0.0324,-0.12192 -0.14462,-0.56887 -0.1875,-0.6875 -0.0429,-0.11863 -0.22819,-0.51056 -0.28125,-0.625 -0.0531,-0.11444 -0.24966,-0.51563 -0.3125,-0.625 -0.0628,-0.10937 -0.30285,-0.49028 -0.375,-0.59375 -0.0722,-0.10347 -0.3566,-0.46572 -0.4375,-0.5625 -0.0809,-0.0968 -0.37971,-0.44189 -0.46875,-0.53125 -0.089,-0.0894 -0.40351,-0.3875 -0.5,-0.46875 -0.0965,-0.0812 -0.45929,-0.33373 -0.5625,-0.40625 -0.10321,-0.0725 -0.4846,-0.31176 -0.59375,-0.375 -0.10915,-0.0632 -0.51075,-0.29028 -0.625,-0.34375 -0.11425,-0.0535 -0.50652,-0.2067 -0.625,-0.25 -0.0324,-0.0119 -0.12138,-0.0408 -0.1875,-0.0625 -0.0217,-0.0661 -0.0506,-0.15505 -0.0625,-0.1875 -0.0433,-0.11848 -0.19653,-0.51075 -0.25,-0.625 -0.0535,-0.11425 -0.28051,-0.51585 -0.34375,-0.625 -0.0632,-0.10915 -0.30248,-0.49054 -0.375,-0.59375 -0.0725,-0.10321 -0.325,-0.46601 -0.40625,-0.5625 -0.0813,-0.0965 -0.37939,-0.41096 -0.46875,-0.5 -0.0894,-0.089 -0.43447,-0.38785 -0.53125,-0.46875 -0.0968,-0.0809 -0.45903,-0.36535 -0.5625,-0.4375 -0.10347,-0.0721 -0.48438,-0.31216 -0.59375,-0.375 -0.10937,-0.0628 -0.51056,-0.25944 -0.625,-0.3125 -0.11444,-0.0531 -0.50637,-0.23837 -0.625,-0.28125 -0.11863,-0.0429 -0.56558,-0.15514 -0.6875,-0.1875 -0.12192,-0.0324 -0.56322,-0.13465 -0.6875,-0.15625 -0.12428,-0.0216 -0.56181,-0.0831 -0.6875,-0.0937 -0.12569,-0.0107 -0.56136,-0.0316 -0.6875,-0.0312 l -10,0 a 1.8409057,1.8409057 0 0 0 -0.0312,0 c -0.15095,0.002 -0.66257,0.0449 -0.8125,0.0625 -0.14993,0.0176 -0.69647,0.0919 -0.84375,0.125 -0.14728,0.0331 -0.66949,0.20167 -0.8125,0.25 -0.14301,-0.0483 -0.66522,-0.21686 -0.8125,-0.25 -0.14728,-0.0331 -0.69382,-0.10741 -0.84375,-0.125 -0.14993,-0.0176 -0.66155,-0.0607 -0.8125,-0.0625 a 1.8409057,1.8409057 0 0 0 -0.0312,0 l -5,0 c -0.12454,-5e-5 -0.56341,0.0206 -0.6875,0.0312 -0.12409,0.0107 -0.5648,0.0724 -0.6875,0.0937 -0.1227,0.0213 -0.56709,0.12443 -0.6875,0.15625 -0.12041,0.0318 -0.53903,0.14542 -0.65625,0.1875 -0.11722,0.0421 -0.51184,0.22923 -0.625,0.28125 -0.11316,0.052 -0.51674,0.25093 -0.625,0.3125 -0.10826,0.0616 -0.4912,0.27308 -0.59375,0.34375 -0.10255,0.0707 -0.43517,0.35826 -0.53125,0.4375 -0.0961,0.0792 -0.44235,0.35027 -0.53125,0.4375 -0.0889,0.0872 -0.3877,0.43669 -0.46875,0.53125 -0.0811,0.0946 -0.33364,0.43006 -0.40625,0.53125 -0.0726,0.10119 -0.34263,0.48668 -0.40625,0.59375 -0.0636,0.10707 -0.25834,0.4816 -0.3125,0.59375 -0.0409,0.0846 -0.14837,0.30016 -0.21875,0.46875 l -0.125,0 c -0.0704,-0.16859 -0.17788,-0.38411 -0.21875,-0.46875 -0.0542,-0.11215 -0.24888,-0.48668 -0.3125,-0.59375 -0.0636,-0.10707 -0.33364,-0.49256 -0.40625,-0.59375 -0.0726,-0.10119 -0.3252,-0.43669 -0.40625,-0.53125 -0.0811,-0.0946 -0.37985,-0.44402 -0.46875,-0.53125 -0.0889,-0.0872 -0.43517,-0.35826 -0.53125,-0.4375 -0.0961,-0.0792 -0.4287,-0.36683 -0.53125,-0.4375 -0.10255,-0.0707 -0.48549,-0.28218 -0.59375,-0.34375 -0.10826,-0.0616 -0.51184,-0.26048 -0.625,-0.3125 -0.11316,-0.052 -0.50778,-0.23917 -0.625,-0.28125 -0.11722,-0.0421 -0.53584,-0.15568 -0.65625,-0.1875 -0.12041,-0.0318 -0.5648,-0.13492 -0.6875,-0.15625 -0.1227,-0.0213 -0.56341,-0.0831 -0.6875,-0.0937 -0.12409,-0.0107 -0.56296,-0.0313 -0.6875,-0.0312 l -15,0 c -0.12042,6.3e-4 -0.56755,0.0206 -0.6875,0.0312 -0.11995,0.0107 -0.5376,0.0731 -0.65625,0.0937 -0.11865,0.0206 -0.53973,0.0946 -0.65625,0.125 -0.0765,0.02 -0.244,0.10548 -0.40625,0.15625 -0.0126,-0.038 -0.0235,-0.10356 -0.0312,-0.125 -0.0429,-0.11863 -0.22819,-0.51056 -0.28125,-0.625 -0.0531,-0.11444 -0.24966,-0.51563 -0.3125,-0.625 -0.0628,-0.10937 -0.30285,-0.49028 -0.375,-0.59375 -0.0721,-0.10347 -0.3566,-0.46572 -0.4375,-0.5625 -0.0809,-0.0968 -0.37971,-0.44189 -0.46875,-0.53125 -0.089,-0.0894 -0.40351,-0.3875 -0.5,-0.46875 -0.0965,-0.0812 -0.45929,-0.33373 -0.5625,-0.40625 -0.10321,-0.0725 -0.4846,-0.31176 -0.59375,-0.375 -0.10915,-0.0632 -0.51075,-0.29028 -0.625,-0.34375 -0.11425,-0.0535 -0.50652,-0.2067 -0.625,-0.25 -0.0325,-0.0119 -0.12138,-0.0408 -0.1875,-0.0625 -0.0217,-0.0661 -0.0506,-0.15505 -0.0625,-0.1875 -0.0433,-0.11848 -0.19653,-0.51075 -0.25,-0.625 -0.0535,-0.11425 -0.28051,-0.51585 -0.34375,-0.625 -0.0632,-0.10915 -0.30248,-0.49054 -0.375,-0.59375 -0.0725,-0.10321 -0.325,-0.46601 -0.40625,-0.5625 -0.0813,-0.0965 -0.37939,-0.41096 -0.46875,-0.5 -0.0894,-0.089 -0.43447,-0.38785 -0.53125,-0.46875 -0.0968,-0.0809 -0.45903,-0.36535 -0.5625,-0.4375 -0.10347,-0.0721 -0.48438,-0.31216 -0.59375,-0.375 -0.10937,-0.0628 -0.51056,-0.25944 -0.625,-0.3125 -0.11444,-0.0531 -0.50637,-0.23837 -0.625,-0.28125 -0.11863,-0.0429 -0.56558,-0.15514 -0.6875,-0.1875 -0.12192,-0.0324 -0.56322,-0.13465 -0.6875,-0.15625 -0.12428,-0.0216 -0.56181,-0.0831 -0.6875,-0.0937 -0.12569,-0.0107 -0.56136,-0.0316 -0.6875,-0.0312 l -20,0 z m 83.03125,36.0625 1.5,0 c -0.0633,0.13794 -0.13129,0.28156 -0.15625,0.34375 -0.0293,0.073 -0.0673,0.23742 -0.125,0.40625 -0.24462,0.0886 -0.59559,0.19417 -0.71875,0.25 -0.0961,0.0435 -0.29286,0.17016 -0.5,0.28125 l 0,-1.28125 z"
         inkscape:href="#path3768"
         id="path3775"
         style="font-size:40px;font-style:normal;font-weight:normal;line-height:125%;letter-spacing:0px;word-spacing:0px;fill:#0b40ff;fill-opacity:1;stroke:none;font-family:avenir;-inkscape-font-specification:avenir"
         xlink:href="#path3768"
         inkscape:original="M 166.5 550.34375 A 6.1725599 6.1725599 0 0 0 160.3125 556.53125 L 160.3125 591.53125 A 6.1725599 6.1725599 0 0 0 166.5 597.71875 L 186.5 597.71875 A 6.1725599 6.1725599 0 0 0 191.5 595.15625 A 6.1725599 6.1725599 0 0 0 196.5 597.71875 L 226.5 597.71875 A 6.1725599 6.1725599 0 0 0 229 597.15625 A 6.1725599 6.1725599 0 0 0 231.5 597.71875 L 241.5 597.71875 A 6.1725599 6.1725599 0 0 0 247.15625 594 L 247.15625 617.875 A 6.1725599 6.1725599 0 0 0 252.25 623.96875 A 6.1725599 6.1725599 0 0 0 258.34375 629.0625 L 273.34375 629.0625 A 6.1725599 6.1725599 0 0 0 278.34375 626.5 A 6.1725599 6.1725599 0 0 0 283.34375 629.0625 L 293.34375 629.0625 A 6.1725599 6.1725599 0 0 0 299.53125 622.875 L 299.53125 614.0625 L 302.15625 614.0625 L 302.15625 617.875 A 6.1725599 6.1725599 0 0 0 307.25 623.96875 A 6.1725599 6.1725599 0 0 0 313.34375 629.0625 L 343.34375 629.0625 A 6.1725599 6.1725599 0 0 0 348.34375 626.5 A 6.1725599 6.1725599 0 0 0 353.34375 629.0625 L 363.34375 629.0625 A 6.1725599 6.1725599 0 0 0 365.84375 628.5 A 6.1725599 6.1725599 0 0 0 368.34375 629.0625 L 378.34375 629.0625 A 6.1725599 6.1725599 0 0 0 383.34375 626.5 A 6.1725599 6.1725599 0 0 0 388.34375 629.0625 L 408.34375 629.0625 A 6.1725599 6.1725599 0 0 0 414.53125 622.875 L 414.53125 617.875 A 6.1725599 6.1725599 0 0 0 409.53125 611.8125 L 409.53125 587.875 A 6.1725599 6.1725599 0 0 0 403.34375 581.6875 L 388.34375 581.6875 A 6.1725599 6.1725599 0 0 0 382.15625 587.875 L 382.15625 591.6875 L 373.34375 591.6875 A 6.1725599 6.1725599 0 0 0 367.15625 597.875 L 367.15625 601.6875 L 364.53125 601.6875 L 364.53125 597.875 A 6.1725599 6.1725599 0 0 0 358.34375 591.6875 L 348.34375 591.6875 A 6.1725599 6.1725599 0 0 0 342.28125 596.6875 L 339.40625 596.6875 A 6.1725599 6.1725599 0 0 0 333.34375 591.6875 L 318.34375 591.6875 A 6.1725599 6.1725599 0 0 0 312.15625 597.875 L 312.15625 598 A 6.1725599 6.1725599 0 0 0 309.4375 596.78125 A 6.1725599 6.1725599 0 0 0 303.34375 591.6875 L 293.34375 591.6875 A 6.1725599 6.1725599 0 0 0 290.84375 592.25 A 6.1725599 6.1725599 0 0 0 288.34375 591.6875 L 284.40625 591.6875 A 6.1725599 6.1725599 0 0 0 279.4375 586.78125 A 6.1725599 6.1725599 0 0 0 273.34375 581.6875 L 259.90625 581.6875 A 6.1725599 6.1725599 0 0 0 262.6875 576.53125 L 262.6875 571.53125 A 6.1725599 6.1725599 0 0 0 257.59375 565.4375 A 6.1725599 6.1725599 0 0 0 251.5 560.34375 L 241.5 560.34375 A 6.1725599 6.1725599 0 0 0 239 560.90625 A 6.1725599 6.1725599 0 0 0 236.5 560.34375 L 231.5 560.34375 A 6.1725599 6.1725599 0 0 0 225.4375 565.34375 L 222.5625 565.34375 A 6.1725599 6.1725599 0 0 0 216.5 560.34375 L 201.5 560.34375 A 6.1725599 6.1725599 0 0 0 197.6875 561.6875 L 197.6875 561.53125 A 6.1725599 6.1725599 0 0 0 192.59375 555.4375 A 6.1725599 6.1725599 0 0 0 186.5 550.34375 L 166.5 550.34375 z M 247.6875 582.71875 L 254.9375 582.71875 A 6.1725599 6.1725599 0 0 0 252.25 586.78125 A 6.1725599 6.1725599 0 0 0 247.6875 590.40625 L 247.6875 582.71875 z M 269.53125 604.0625 L 277.15625 604.0625 L 277.15625 606.6875 L 269.53125 606.6875 L 269.53125 604.0625 z "
         inkscape:radius="1.8407216"
         sodipodi:type="inkscape:offset" />
      <path
         d="m 166.5,550.34375 a 6.1725599,6.1725599 0 0 0 -6.1875,6.1875 l 0,35 a 6.1725599,6.1725599 0 0 0 6.1875,6.1875 l 20,0 a 6.1725599,6.1725599 0 0 0 5,-2.5625 6.1725599,6.1725599 0 0 0 5,2.5625 l 30,0 a 6.1725599,6.1725599 0 0 0 2.5,-0.5625 6.1725599,6.1725599 0 0 0 2.5,0.5625 l 10,0 A 6.1725599,6.1725599 0 0 0 247.15625,594 l 0,23.875 a 6.1725599,6.1725599 0 0 0 5.09375,6.09375 6.1725599,6.1725599 0 0 0 6.09375,5.09375 l 15,0 a 6.1725599,6.1725599 0 0 0 5,-2.5625 6.1725599,6.1725599 0 0 0 5,2.5625 l 10,0 a 6.1725599,6.1725599 0 0 0 6.1875,-6.1875 l 0,-8.8125 2.625,0 0,3.8125 a 6.1725599,6.1725599 0 0 0 5.09375,6.09375 6.1725599,6.1725599 0 0 0 6.09375,5.09375 l 30,0 a 6.1725599,6.1725599 0 0 0 5,-2.5625 6.1725599,6.1725599 0 0 0 5,2.5625 l 10,0 a 6.1725599,6.1725599 0 0 0 2.5,-0.5625 6.1725599,6.1725599 0 0 0 2.5,0.5625 l 10,0 a 6.1725599,6.1725599 0 0 0 5,-2.5625 6.1725599,6.1725599 0 0 0 5,2.5625 l 20,0 a 6.1725599,6.1725599 0 0 0 6.1875,-6.1875 l 0,-5 a 6.1725599,6.1725599 0 0 0 -5,-6.0625 l 0,-23.9375 a 6.1725599,6.1725599 0 0 0 -6.1875,-6.1875 l -15,0 a 6.1725599,6.1725599 0 0 0 -6.1875,6.1875 l 0,3.8125 -8.8125,0 a 6.1725599,6.1725599 0 0 0 -6.1875,6.1875 l 0,3.8125 -2.625,0 0,-3.8125 a 6.1725599,6.1725599 0 0 0 -6.1875,-6.1875 l -10,0 a 6.1725599,6.1725599 0 0 0 -6.0625,5 l -2.875,0 a 6.1725599,6.1725599 0 0 0 -6.0625,-5 l -15,0 a 6.1725599,6.1725599 0 0 0 -6.1875,6.1875 l 0,0.125 a 6.1725599,6.1725599 0 0 0 -2.71875,-1.21875 6.1725599,6.1725599 0 0 0 -6.09375,-5.09375 l -10,0 a 6.1725599,6.1725599 0 0 0 -2.5,0.5625 6.1725599,6.1725599 0 0 0 -2.5,-0.5625 l -3.9375,0 a 6.1725599,6.1725599 0 0 0 -4.96875,-4.90625 6.1725599,6.1725599 0 0 0 -6.09375,-5.09375 l -13.4375,0 a 6.1725599,6.1725599 0 0 0 2.78125,-5.15625 l 0,-5 A 6.1725599,6.1725599 0 0 0 257.59375,565.4375 6.1725599,6.1725599 0 0 0 251.5,560.34375 l -10,0 a 6.1725599,6.1725599 0 0 0 -2.5,0.5625 6.1725599,6.1725599 0 0 0 -2.5,-0.5625 l -5,0 a 6.1725599,6.1725599 0 0 0 -6.0625,5 l -2.875,0 a 6.1725599,6.1725599 0 0 0 -6.0625,-5 l -15,0 a 6.1725599,6.1725599 0 0 0 -3.8125,1.34375 l 0,-0.15625 A 6.1725599,6.1725599 0 0 0 192.59375,555.4375 6.1725599,6.1725599 0 0 0 186.5,550.34375 l -20,0 z m 81.1875,32.375 7.25,0 a 6.1725599,6.1725599 0 0 0 -2.6875,4.0625 6.1725599,6.1725599 0 0 0 -4.5625,3.625 l 0,-7.6875 z m 21.84375,21.34375 7.625,0 0,2.625 -7.625,0 0,-2.625 z"
         inkscape:href="#text3753"
         id="path3768"
         style="font-size:40px;font-style:normal;font-weight:normal;line-height:125%;letter-spacing:0px;word-spacing:0px;fill:#ffca23;fill-opacity:1;stroke:none;font-family:avenir;-inkscape-font-specification:avenir"
         xlink:href="#text3753"
         inkscape:original="M 166.5 556.53125 L 166.5 591.53125 L 186.5 591.53125 L 186.5 586.53125 L 191.5 586.53125 L 196.5 586.53125 L 196.5 591.53125 L 226.5 591.53125 L 226.5 571.53125 L 216.5 571.53125 L 216.5 576.53125 L 196.5 576.53125 L 196.5 581.53125 L 191.5 581.53125 L 191.5 576.53125 L 186.5 576.53125 L 186.5 571.53125 L 191.5 571.53125 L 191.5 561.53125 L 186.5 561.53125 L 186.5 556.53125 L 166.5 556.53125 z M 216.5 571.53125 L 216.5 566.53125 L 201.5 566.53125 L 201.5 571.53125 L 216.5 571.53125 z M 176.5 561.53125 L 181.5 561.53125 L 181.5 571.53125 L 176.5 571.53125 L 176.5 561.53125 z M 231.5 566.53125 L 231.5 591.53125 L 241.5 591.53125 L 241.5 571.53125 L 236.5 571.53125 L 236.5 566.53125 L 231.5 566.53125 z M 241.5 571.53125 L 246.5 571.53125 L 246.5 576.53125 L 256.5 576.53125 L 256.5 571.53125 L 251.5 571.53125 L 251.5 566.53125 L 241.5 566.53125 L 241.5 571.53125 z M 176.5 576.53125 L 181.5 576.53125 L 181.5 586.53125 L 176.5 586.53125 L 176.5 576.53125 z M 201.5 581.53125 L 216.5 581.53125 L 216.5 586.53125 L 201.5 586.53125 L 201.5 581.53125 z M 258.34375 587.875 L 258.34375 592.875 L 253.34375 592.875 L 253.34375 617.875 L 258.34375 617.875 L 258.34375 622.875 L 273.34375 622.875 L 273.34375 617.875 L 278.34375 617.875 L 278.34375 612.875 L 268.34375 612.875 L 268.34375 617.875 L 263.34375 617.875 L 263.34375 592.875 L 268.34375 592.875 L 268.34375 597.875 L 278.34375 597.875 L 278.34375 592.875 L 273.34375 592.875 L 273.34375 587.875 L 258.34375 587.875 z M 388.34375 587.875 L 388.34375 592.875 L 393.34375 592.875 L 393.34375 617.875 L 388.34375 617.875 L 388.34375 622.875 L 408.34375 622.875 L 408.34375 617.875 L 403.34375 617.875 L 403.34375 587.875 L 388.34375 587.875 z M 283.34375 597.875 L 283.34375 622.875 L 293.34375 622.875 L 293.34375 602.875 L 288.34375 602.875 L 288.34375 597.875 L 283.34375 597.875 z M 293.34375 602.875 L 298.34375 602.875 L 298.34375 607.875 L 308.34375 607.875 L 308.34375 602.875 L 303.34375 602.875 L 303.34375 597.875 L 293.34375 597.875 L 293.34375 602.875 z M 318.34375 597.875 L 318.34375 602.875 L 333.34375 602.875 L 333.34375 597.875 L 318.34375 597.875 z M 333.34375 602.875 L 333.34375 607.875 L 313.34375 607.875 L 313.34375 612.875 L 308.34375 612.875 L 308.34375 617.875 L 313.34375 617.875 L 313.34375 622.875 L 343.34375 622.875 L 343.34375 602.875 L 333.34375 602.875 z M 348.34375 597.875 L 348.34375 617.875 L 353.34375 617.875 L 353.34375 622.875 L 363.34375 622.875 L 363.34375 617.875 L 358.34375 617.875 L 358.34375 597.875 L 348.34375 597.875 z M 363.34375 617.875 L 368.34375 617.875 L 368.34375 607.875 L 363.34375 607.875 L 363.34375 617.875 z M 368.34375 617.875 L 368.34375 622.875 L 378.34375 622.875 L 378.34375 617.875 L 383.34375 617.875 L 383.34375 597.875 L 373.34375 597.875 L 373.34375 617.875 L 368.34375 617.875 z M 318.34375 612.875 L 333.34375 612.875 L 333.34375 617.875 L 318.34375 617.875 L 318.34375 612.875 z "
         inkscape:radius="6.1719427"
         sodipodi:type="inkscape:offset" />
      <path
         d="m 166.5,556.53125 0,35 20,0 0,-5 5,0 5,0 0,5 30,0 0,-20 -10,0 0,5 -20,0 0,5 -5,0 0,-5 -5,0 0,-5 5,0 0,-10 -5,0 0,-5 -20,0 z m 50,15 0,-5 -15,0 0,5 15,0 z m -40,-10 5,0 0,10 -5,0 0,-10 z m 55,5 0,25 10,0 0,-20 -5,0 0,-5 -5,0 z m 10,5 5,0 0,5 10,0 0,-5 -5,0 0,-5 -10,0 0,5 z m -65,5 5,0 0,10 -5,0 0,-10 z m 25,5 15,0 0,5 -15,0 0,-5 z m 56.84375,6.34375 0,5 -5,0 0,25 5,0 0,5 15,0 0,-5 5,0 0,-5 -10,0 0,5 -5,0 0,-25 5,0 0,5 10,0 0,-5 -5,0 0,-5 -15,0 z m 130,0 0,5 5,0 0,25 -5,0 0,5 20,0 0,-5 -5,0 0,-30 -15,0 z m -105,10 0,25 10,0 0,-20 -5,0 0,-5 -5,0 z m 10,5 5,0 0,5 10,0 0,-5 -5,0 0,-5 -10,0 0,5 z m 25,-5 0,5 15,0 0,-5 -15,0 z m 15,5 0,5 -20,0 0,5 -5,0 0,5 5,0 0,5 30,0 0,-20 -10,0 z m 15,-5 0,20 5,0 0,5 10,0 0,-5 -5,0 0,-20 -10,0 z m 15,20 5,0 0,-10 -5,0 0,10 z m 5,0 0,5 10,0 0,-5 5,0 0,-20 -10,0 0,20 -5,0 z m -50,-5 15,0 0,5 -15,0 0,-5 z"
         inkscape:href="#text3753"
         id="path3770"
         style="font-size:40px;font-style:normal;font-weight:normal;line-height:125%;letter-spacing:0px;word-spacing:0px;fill:#0b40ff;fill-opacity:1;stroke:none;font-family:avenir;-inkscape-font-specification:avenir"
         xlink:href="#text3753"
         inkscape:original="M 166.5 556.53125 L 166.5 591.53125 L 186.5 591.53125 L 186.5 586.53125 L 191.5 586.53125 L 196.5 586.53125 L 196.5 591.53125 L 226.5 591.53125 L 226.5 571.53125 L 216.5 571.53125 L 216.5 576.53125 L 196.5 576.53125 L 196.5 581.53125 L 191.5 581.53125 L 191.5 576.53125 L 186.5 576.53125 L 186.5 571.53125 L 191.5 571.53125 L 191.5 561.53125 L 186.5 561.53125 L 186.5 556.53125 L 166.5 556.53125 z M 216.5 571.53125 L 216.5 566.53125 L 201.5 566.53125 L 201.5 571.53125 L 216.5 571.53125 z M 176.5 561.53125 L 181.5 561.53125 L 181.5 571.53125 L 176.5 571.53125 L 176.5 561.53125 z M 231.5 566.53125 L 231.5 591.53125 L 241.5 591.53125 L 241.5 571.53125 L 236.5 571.53125 L 236.5 566.53125 L 231.5 566.53125 z M 241.5 571.53125 L 246.5 571.53125 L 246.5 576.53125 L 256.5 576.53125 L 256.5 571.53125 L 251.5 571.53125 L 251.5 566.53125 L 241.5 566.53125 L 241.5 571.53125 z M 176.5 576.53125 L 181.5 576.53125 L 181.5 586.53125 L 176.5 586.53125 L 176.5 576.53125 z M 201.5 581.53125 L 216.5 581.53125 L 216.5 586.53125 L 201.5 586.53125 L 201.5 581.53125 z M 258.34375 587.875 L 258.34375 592.875 L 253.34375 592.875 L 253.34375 617.875 L 258.34375 617.875 L 258.34375 622.875 L 273.34375 622.875 L 273.34375 617.875 L 278.34375 617.875 L 278.34375 612.875 L 268.34375 612.875 L 268.34375 617.875 L 263.34375 617.875 L 263.34375 592.875 L 268.34375 592.875 L 268.34375 597.875 L 278.34375 597.875 L 278.34375 592.875 L 273.34375 592.875 L 273.34375 587.875 L 258.34375 587.875 z M 388.34375 587.875 L 388.34375 592.875 L 393.34375 592.875 L 393.34375 617.875 L 388.34375 617.875 L 388.34375 622.875 L 408.34375 622.875 L 408.34375 617.875 L 403.34375 617.875 L 403.34375 587.875 L 388.34375 587.875 z M 283.34375 597.875 L 283.34375 622.875 L 293.34375 622.875 L 293.34375 602.875 L 288.34375 602.875 L 288.34375 597.875 L 283.34375 597.875 z M 293.34375 602.875 L 298.34375 602.875 L 298.34375 607.875 L 308.34375 607.875 L 308.34375 602.875 L 303.34375 602.875 L 303.34375 597.875 L 293.34375 597.875 L 293.34375 602.875 z M 318.34375 597.875 L 318.34375 602.875 L 333.34375 602.875 L 333.34375 597.875 L 318.34375 597.875 z M 333.34375 602.875 L 333.34375 607.875 L 313.34375 607.875 L 313.34375 612.875 L 308.34375 612.875 L 308.34375 617.875 L 313.34375 617.875 L 313.34375 622.875 L 343.34375 622.875 L 343.34375 602.875 L 333.34375 602.875 z M 348.34375 597.875 L 348.34375 617.875 L 353.34375 617.875 L 353.34375 622.875 L 363.34375 622.875 L 363.34375 617.875 L 358.34375 617.875 L 358.34375 597.875 L 348.34375 597.875 z M 363.34375 617.875 L 368.34375 617.875 L 368.34375 607.875 L 363.34375 607.875 L 363.34375 617.875 z M 368.34375 617.875 L 368.34375 622.875 L 378.34375 622.875 L 378.34375 617.875 L 383.34375 617.875 L 383.34375 597.875 L 373.34375 597.875 L 373.34375 617.875 L 368.34375 617.875 z M 318.34375 612.875 L 333.34375 612.875 L 333.34375 617.875 L 318.34375 617.875 L 318.34375 612.875 z "
         inkscape:radius="0"
         sodipodi:type="inkscape:offset" />
      <path
         inkscape:connector-curvature="0"
         id="text3753"
         d="m 166.5,556.51843 0,35 20,0 0,-5 5,0 5,0 0,5 30,0 0,-20 -10,0 0,5 -20,0 0,5 -5,0 0,-5 -5,0 0,-5 5,0 0,-10 -5,0 0,-5 -20,0 z m 50,15 0,-5 -15,0 0,5 15,0 z m -40,-10 5,0 0,10 -5,0 0,-10 z m 55,5 0,25 10,0 0,-20 -5,0 0,-5 -5,0 z m 10,5 5,0 0,5 10,0 0,-5 -5,0 0,-5 -10,0 0,5 z m -65,5 5,0 0,10 -5,0 0,-10 z m 25,5 15,0 0,5 -15,0 0,-5 z m 56.84375,6.34375 0,5 -5,0 0,25 5,0 0,5 15,0 0,-5 5,0 0,-5 -10,0 0,5 -5,0 0,-25 5,0 0,5 10,0 0,-5 -5,0 0,-5 -15,0 z m 130,0 0,5 5,0 0,25 -5,0 0,5 20,0 0,-5 -5,0 0,-30 -15,0 z m -105,10 0,25 10,0 0,-20 -5,0 0,-5 -5,0 z m 10,5 5,0 0,5 10,0 0,-5 -5,0 0,-5 -10,0 0,5 z m 25,-5 0,5 15,0 0,-5 -15,0 z m 15,5 0,5 -20,0 0,5 -5,0 0,5 5,0 0,5 30,0 0,-20 -10,0 z m 15,-5 0,20 5,0 0,5 10,0 0,-5 -5,0 0,-20 -10,0 z m 15,20 5,0 0,-10 -5,0 0,10 z m 5,0 0,5 10,0 0,-5 5,0 0,-20 -10,0 0,20 -5,0 z m -50,-5 15,0 0,5 -15,0 0,-5 z"
         style="font-size:40px;font-style:normal;font-weight:normal;line-height:125%;letter-spacing:0px;word-spacing:0px;fill:#0b40ff;fill-opacity:1;stroke:none;font-family:avenir;-inkscape-font-specification:avenir" />
    </g>
    <rect
       ry="12.984755"
       y="718.16919"
       x="232.84186"
       height="313.67294"
       width="335.38873"
       id="rect3907"
       style="fill:#0b40ff;fill-opacity:0.41176471;stroke:none" />
    <rect
       style="fill:#0b40ff;fill-opacity:1;stroke:none"
       id="rect3889"
       width="307.23862"
       height="82.84182"
       x="246.91692"
       y="735.47211"
       ry="8.5698442" />
    <text
       xml:space="preserve"
       style="font-size:40px;font-style:normal;font-weight:normal;line-height:125%;letter-spacing:0px;word-spacing:0px;fill:#ffffff;fill-opacity:1;stroke:none;font-family:avenir;-inkscape-font-specification:avenir"
       x="306.53622"
       y="790.16376"
       id="text3891"
       sodipodi:linespacing="125%"><tspan
         sodipodi:role="line"
         id="tspan3893"
         x="306.53622"
         y="790.16376"
         style="font-size:32px;fill:#ffffff;fill-opacity:1;font-family:pixelmix bold;-inkscape-font-specification:pixelmix bold">Continue</tspan></text>
    <rect
       ry="8.5698442"
       y="833.59546"
       x="246.91692"
       height="82.84182"
       width="307.23862"
       id="rect3895"
       style="fill:#0b40ff;fill-opacity:1;stroke:none" />
    <text
       sodipodi:linespacing="125%"
       id="text3897"
       y="888.28711"
       x="290.53622"
       style="font-size:40px;font-style:normal;font-weight:normal;line-height:125%;letter-spacing:0px;word-spacing:0px;fill:#ffffff;fill-opacity:1;stroke:none;font-family:avenir;-inkscape-font-specification:avenir"
       xml:space="preserve"><tspan
         style="font-size:32px;fill:#ffffff;fill-opacity:1;font-family:pixelmix bold;-inkscape-font-specification:pixelmix bold"
         y="888.28711"
         x="290.53622"
         id="tspan3899"
         sodipodi:role="line">New Game</tspan></text>
    <rect
       style="fill:#0b40ff;fill-opacity:1;stroke:none"
       id="rect3901"
       width="307.23862"
       height="82.84182"
       x="246.91692"
       y="931.71881"
       ry="8.5698442" />
    <text
       xml:space="preserve"
       style="font-size:40px;font-style:normal;font-weight:normal;line-height:125%;letter-spacing:0px;word-spacing:0px;fill:#ffffff;fill-opacity:1;stroke:none;font-family:avenir;-inkscape-font-specification:avenir"
       x="282.53622"
       y="986.41046"
       id="text3903"
       sodipodi:linespacing="125%"><tspan
         sodipodi:role="line"
         id="tspan3905"
         x="282.53622"
         y="986.41046"
         style="font-size:32px;fill:#ffffff;fill-opacity:1;font-family:pixelmix bold;-inkscape-font-specification:pixelmix bold">Load Game</tspan></text>
  </g>
</svg>
