# Wavefront OBJ file automatically generated by Tiled2Unity

# Vertices (Count = 121)
v 0 -0.319999992847443 0
v -0.319999992847443 -0.319999992847443 0
v -0.319999992847443 0 0
v 0 0 0
v -0.639999985694885 -0.319999992847443 0
v -0.639999985694885 0 0
v -0.959999978542328 -0.319999992847443 0
v -0.959999978542328 0 0
v -1.27999997138977 -0.319999992847443 0
v -1.27999997138977 0 0
v -1.59999990463257 -0.319999992847443 0
v -1.59999990463257 0 0
v -1.91999995708466 -0.319999992847443 0
v -1.91999995708466 0 0
v -2.24000000953674 -0.319999992847443 0
v -2.24000000953674 0 0
v -2.55999994277954 -0.319999992847443 0
v -2.55999994277954 0 0
v -2.87999987602234 -0.319999992847443 0
v -2.87999987602234 0 0
v -3.19999980926514 -0.319999992847443 0
v -3.19999980926514 0 0
v 0 -0.639999985694885 0
v -0.319999992847443 -0.639999985694885 0
v -0.639999985694885 -0.639999985694885 0
v -0.959999978542328 -0.639999985694885 0
v -1.27999997138977 -0.639999985694885 0
v -1.59999990463257 -0.639999985694885 0
v -1.91999995708466 -0.639999985694885 0
v -2.24000000953674 -0.639999985694885 0
v -2.55999994277954 -0.639999985694885 0
v -2.87999987602234 -0.639999985694885 0
v -3.19999980926514 -0.639999985694885 0
v 0 -0.959999978542328 0
v -0.319999992847443 -0.959999978542328 0
v -0.639999985694885 -0.959999978542328 0
v -0.959999978542328 -0.959999978542328 0
v -1.27999997138977 -0.959999978542328 0
v -1.59999990463257 -0.959999978542328 0
v -1.91999995708466 -0.959999978542328 0
v -2.24000000953674 -0.959999978542328 0
v -2.55999994277954 -0.959999978542328 0
v -2.87999987602234 -0.959999978542328 0
v -3.19999980926514 -0.959999978542328 0
v 0 -1.27999997138977 0
v -0.319999992847443 -1.27999997138977 0
v -0.639999985694885 -1.27999997138977 0
v -0.959999978542328 -1.27999997138977 0
v -1.27999997138977 -1.27999997138977 0
v -1.59999990463257 -1.27999997138977 0
v -1.91999995708466 -1.27999997138977 0
v -2.24000000953674 -1.27999997138977 0
v -2.55999994277954 -1.27999997138977 0
v -2.87999987602234 -1.27999997138977 0
v -3.19999980926514 -1.27999997138977 0
v 0 -1.59999990463257 0
v -0.319999992847443 -1.59999990463257 0
v -0.639999985694885 -1.59999990463257 0
v -0.959999978542328 -1.59999990463257 0
v -1.27999997138977 -1.59999990463257 0
v -1.59999990463257 -1.59999990463257 0
v -1.91999995708466 -1.59999990463257 0
v -2.24000000953674 -1.59999990463257 0
v -2.55999994277954 -1.59999990463257 0
v -2.87999987602234 -1.59999990463257 0
v -3.19999980926514 -1.59999990463257 0
v 0 -1.91999995708466 0
v -0.319999992847443 -1.91999995708466 0
v -0.639999985694885 -1.91999995708466 0
v -0.959999978542328 -1.91999995708466 0
v -1.27999997138977 -1.91999995708466 0
v -1.59999990463257 -1.91999995708466 0
v -1.91999995708466 -1.91999995708466 0
v -2.24000000953674 -1.91999995708466 0
v -2.55999994277954 -1.91999995708466 0
v -2.87999987602234 -1.91999995708466 0
v -3.19999980926514 -1.91999995708466 0
v 0 -2.24000000953674 0
v -0.319999992847443 -2.24000000953674 0
v -0.639999985694885 -2.24000000953674 0
v -0.959999978542328 -2.24000000953674 0
v -1.27999997138977 -2.24000000953674 0
v -1.59999990463257 -2.24000000953674 0
v -1.91999995708466 -2.24000000953674 0
v -2.24000000953674 -2.24000000953674 0
v -2.55999994277954 -2.24000000953674 0
v -2.87999987602234 -2.24000000953674 0
v -3.19999980926514 -2.24000000953674 0
v 0 -2.55999994277954 0
v -0.319999992847443 -2.55999994277954 0
v -0.639999985694885 -2.55999994277954 0
v -0.959999978542328 -2.55999994277954 0
v -1.27999997138977 -2.55999994277954 0
v -1.59999990463257 -2.55999994277954 0
v -1.91999995708466 -2.55999994277954 0
v -2.24000000953674 -2.55999994277954 0
v -2.55999994277954 -2.55999994277954 0
v -2.87999987602234 -2.55999994277954 0
v -3.19999980926514 -2.55999994277954 0
v 0 -2.87999987602234 0
v -0.319999992847443 -2.87999987602234 0
v -0.639999985694885 -2.87999987602234 0
v -0.959999978542328 -2.87999987602234 0
v -1.27999997138977 -2.87999987602234 0
v -1.59999990463257 -2.87999987602234 0
v -1.91999995708466 -2.87999987602234 0
v -2.24000000953674 -2.87999987602234 0
v -2.55999994277954 -2.87999987602234 0
v -2.87999987602234 -2.87999987602234 0
v -3.19999980926514 -2.87999987602234 0
v 0 -3.19999980926514 0
v -0.319999992847443 -3.19999980926514 0
v -0.639999985694885 -3.19999980926514 0
v -0.959999978542328 -3.19999980926514 0
v -1.27999997138977 -3.19999980926514 0
v -1.59999990463257 -3.19999980926514 0
v -1.91999995708466 -3.19999980926514 0
v -2.24000000953674 -3.19999980926514 0
v -2.55999994277954 -3.19999980926514 0
v -2.87999987602234 -3.19999980926514 0
v -3.19999980926514 -3.19999980926514 0

# Texture Coorindates (Count = 180)
vt 0.4376221 0.8126221
vt 0.4998779 0.8126221
vt 0.4998779 0.8748779
vt 0.4376221 0.8748779
vt 0.0001220703 0.900122
vt 0.09987793 0.900122
vt 0.09987793 0.9998779
vt 0.0001220703 0.9998779
vt 0.1001221 0.900122
vt 0.1998779 0.900122
vt 0.1998779 0.9998779
vt 0.1001221 0.9998779
vt 0.2001221 0.900122
vt 0.2998779 0.900122
vt 0.2998779 0.9998779
vt 0.2001221 0.9998779
vt 0.0001220703 0.8001221
vt 0.09987793 0.8001221
vt 0.09987793 0.8998779
vt 0.0001220703 0.8998779
vt 0.1001221 0.8001221
vt 0.1998779 0.8001221
vt 0.1998779 0.8998779
vt 0.1001221 0.8998779
vt 0.2001221 0.8001221
vt 0.2998779 0.8001221
vt 0.2998779 0.8998779
vt 0.2001221 0.8998779
vt 0.09387207 0.4376221
vt 0.1248779 0.4376221
vt 0.1248779 0.4686279
vt 0.09387207 0.4686279
vt 0.1251221 0.4376221
vt 0.1561279 0.4376221
vt 0.1561279 0.4686279
vt 0.1251221 0.4686279
vt 0.09387207 0.4063721
vt 0.1248779 0.4063721
vt 0.1248779 0.4373779
vt 0.09387207 0.4373779
vt 0.1251221 0.4063721
vt 0.1561279 0.4063721
vt 0.1561279 0.4373779
vt 0.1251221 0.4373779
vt 0.03137207 0.4688721
vt 0.06237793 0.4688721
vt 0.06237793 0.4998779
vt 0.03137207 0.4998779
vt 0.6001221 0.900122
vt 0.6998779 0.900122
vt 0.6998779 0.9998779
vt 0.6001221 0.9998779
vt 0.5001221 0.900122
vt 0.599878 0.900122
vt 0.599878 0.9998779
vt 0.5001221 0.9998779
vt 0.0001220703 0.0001220703
vt 0.06237793 0.0001220703
vt 0.06237793 0.06237793
vt 0.0001220703 0.06237793
vt 0.06262207 0.0001220703
vt 0.1248779 0.0001220703
vt 0.1248779 0.06237793
vt 0.06262207 0.06237793
vt 0.1251221 0.0001220703
vt 0.1873779 0.0001220703
vt 0.1873779 0.06237793
vt 0.1251221 0.06237793
vt 0.0001220703 0.06262207
vt 0.06237793 0.06262207
vt 0.06237793 0.1248779
vt 0.0001220703 0.1248779
vt 0.06262207 0.06262207
vt 0.1248779 0.06262207
vt 0.1248779 0.1248779
vt 0.06262207 0.1248779
vt 0.1251221 0.06262207
vt 0.1873779 0.06262207
vt 0.1873779 0.1248779
vt 0.1251221 0.1248779
vt 0.03137207 0.3126221
vt 0.06237793 0.3126221
vt 0.06237793 0.3436279
vt 0.03137207 0.3436279
vt 0.06262207 0.3126221
vt 0.09362793 0.3126221
vt 0.09362793 0.3436279
vt 0.06262207 0.3436279
vt 0.03137207 0.2188721
vt 0.06237793 0.2188721
vt 0.06237793 0.2498779
vt 0.03137207 0.2498779
vt 0.09387207 0.1251221
vt 0.1248779 0.1251221
vt 0.1248779 0.1561279
vt 0.09387207 0.1561279
vt 0.1251221 0.1251221
vt 0.1561279 0.1251221
vt 0.1561279 0.1561279
vt 0.1251221 0.1561279
vt 0.09387207 0.09387207
vt 0.1248779 0.09387207
vt 0.09387207 0.1248779
vt 0.1251221 0.09387207
vt 0.1561279 0.09387207
vt 0.1561279 0.1248779
vt 0.7501221 0.8438721
vt 0.7811279 0.8438721
vt 0.7811279 0.8748779
vt 0.7501221 0.8748779
vt 0.4167887 0.3126221
vt 0.4998779 0.3126221
vt 0.4998779 0.3748779
vt 0.4167887 0.3748779
vt 0.2501221 0.4376221
vt 0.3332113 0.4376221
vt 0.3332113 0.4998779
vt 0.2501221 0.4998779
vt 0.4167887 0.2501221
vt 0.4998779 0.2501221
vt 0.4998779 0.3123779
vt 0.4167887 0.3123779
vt 0.2501221 0.3751221
vt 0.3332113 0.3751221
vt 0.3332113 0.4373779
vt 0.2501221 0.4373779
vt 0.9998779 0.0001220703
vt 0.9998779 0.9998779
vt 0.0001220703 0.1251221
vt 0.06237793 0.1251221
vt 0.06237793 0.1873779
vt 0.0001220703 0.1873779
vt 0.06262207 0.1251221
vt 0.1248779 0.1873779
vt 0.06262207 0.1873779
vt 0.1873779 0.1251221
vt 0.1873779 0.1873779
vt 0.1251221 0.1873779
vt 0.09387207 0.3751221
vt 0.1248779 0.3751221
vt 0.1248779 0.4061279
vt 0.09387207 0.4061279
vt 0.1251221 0.3751221
vt 0.1561279 0.3751221
vt 0.1561279 0.4061279
vt 0.1251221 0.4061279
vt 0.0001220703 0.1876221
vt 0.03112793 0.1876221
vt 0.03112793 0.2186279
vt 0.0001220703 0.2186279
vt 0.0001220703 0.3126221
vt 0.03112793 0.3126221
vt 0.03112793 0.3436279
vt 0.0001220703 0.3436279
vt 0.0001220703 0.3751221
vt 0.03112793 0.3751221
vt 0.03112793 0.4061279
vt 0.0001220703 0.4061279
vt 0.09387207 0.3438721
vt 0.1248779 0.3438721
vt 0.1248779 0.3748779
vt 0.09387207 0.3748779
vt 0.1251221 0.3438721
vt 0.1561279 0.3438721
vt 0.1561279 0.3748779
vt 0.1251221 0.3748779
vt 0.0001220703 0.1563721
vt 0.03112793 0.1563721
vt 0.03112793 0.1873779
vt 0.03137207 0.1563721
vt 0.06237793 0.1563721
vt 0.03137207 0.1873779
vt 0.0001220703 0.2813721
vt 0.03112793 0.2813721
vt 0.03112793 0.3123779
vt 0.0001220703 0.3123779
vt 0.0001220703 0.3438721
vt 0.03112793 0.3438721
vt 0.03112793 0.3748779
vt 0.0001220703 0.3748779

# Normal
vn 0 0 -1

# Groups (Count = 16)
g mesh_[00]_[41]
f  1/1/1  2/2/1  3/3/1  4/4/1 
f  2/1/1  5/2/1  6/3/1  3/4/1 
f  5/1/1  7/2/1  8/3/1  6/4/1 
f  7/1/1  9/2/1  10/3/1  8/4/1 
f  9/1/1  11/2/1  12/3/1  10/4/1 
f  11/1/1  13/2/1  14/3/1  12/4/1 
f  13/1/1  15/2/1  16/3/1  14/4/1 
f  15/1/1  17/2/1  18/3/1  16/4/1 
f  17/1/1  19/2/1  20/3/1  18/4/1 
f  19/1/1  21/2/1  22/3/1  20/4/1 
f  23/1/1  24/2/1  2/3/1  1/4/1 
f  24/1/1  25/2/1  5/3/1  2/4/1 
f  25/1/1  26/2/1  7/3/1  5/4/1 
f  26/1/1  27/2/1  9/3/1  7/4/1 
f  27/1/1  28/2/1  11/3/1  9/4/1 
f  28/1/1  29/2/1  13/3/1  11/4/1 
f  29/1/1  30/2/1  15/3/1  13/4/1 
f  30/1/1  31/2/1  17/3/1  15/4/1 
f  31/1/1  32/2/1  19/3/1  17/4/1 
f  32/1/1  33/2/1  21/3/1  19/4/1 
f  34/1/1  35/2/1  24/3/1  23/4/1 
f  35/1/1  36/2/1  25/3/1  24/4/1 
f  36/1/1  37/2/1  26/3/1  25/4/1 
f  37/1/1  38/2/1  27/3/1  26/4/1 
f  38/1/1  39/2/1  28/3/1  27/4/1 
f  39/1/1  40/2/1  29/3/1  28/4/1 
f  40/1/1  41/2/1  30/3/1  29/4/1 
f  41/1/1  42/2/1  31/3/1  30/4/1 
f  42/1/1  43/2/1  32/3/1  31/4/1 
f  43/1/1  44/2/1  33/3/1  32/4/1 
f  45/1/1  46/2/1  35/3/1  34/4/1 
f  46/1/1  47/2/1  36/3/1  35/4/1 
f  47/1/1  48/2/1  37/3/1  36/4/1 
f  48/1/1  49/2/1  38/3/1  37/4/1 
f  49/1/1  50/2/1  39/3/1  38/4/1 
f  50/1/1  51/2/1  40/3/1  39/4/1 
f  51/1/1  52/2/1  41/3/1  40/4/1 
f  52/1/1  53/2/1  42/3/1  41/4/1 
f  53/1/1  54/2/1  43/3/1  42/4/1 
f  54/1/1  55/2/1  44/3/1  43/4/1 
f  56/1/1  57/2/1  46/3/1  45/4/1 
f  57/1/1  58/2/1  47/3/1  46/4/1 
f  58/1/1  59/2/1  48/3/1  47/4/1 
f  59/1/1  60/2/1  49/3/1  48/4/1 
f  60/1/1  61/2/1  50/3/1  49/4/1 
f  61/1/1  62/2/1  51/3/1  50/4/1 
f  62/1/1  63/2/1  52/3/1  51/4/1 
f  63/1/1  64/2/1  53/3/1  52/4/1 
f  64/1/1  65/2/1  54/3/1  53/4/1 
f  65/1/1  66/2/1  55/3/1  54/4/1 
f  67/1/1  68/2/1  57/3/1  56/4/1 
f  68/1/1  69/2/1  58/3/1  57/4/1 
f  69/1/1  70/2/1  59/3/1  58/4/1 
f  70/1/1  71/2/1  60/3/1  59/4/1 
f  71/1/1  72/2/1  61/3/1  60/4/1 
f  72/1/1  73/2/1  62/3/1  61/4/1 
f  73/1/1  74/2/1  63/3/1  62/4/1 
f  74/1/1  75/2/1  64/3/1  63/4/1 
f  75/1/1  76/2/1  65/3/1  64/4/1 
f  76/1/1  77/2/1  66/3/1  65/4/1 
f  78/1/1  79/2/1  68/3/1  67/4/1 
f  79/1/1  80/2/1  69/3/1  68/4/1 
f  80/1/1  81/2/1  70/3/1  69/4/1 
f  81/1/1  82/2/1  71/3/1  70/4/1 
f  82/1/1  83/2/1  72/3/1  71/4/1 
f  83/1/1  84/2/1  73/3/1  72/4/1 
f  84/1/1  85/2/1  74/3/1  73/4/1 
f  85/1/1  86/2/1  75/3/1  74/4/1 
f  86/1/1  87/2/1  76/3/1  75/4/1 
f  87/1/1  88/2/1  77/3/1  76/4/1 
f  89/1/1  90/2/1  79/3/1  78/4/1 
f  90/1/1  91/2/1  80/3/1  79/4/1 
f  91/1/1  92/2/1  81/3/1  80/4/1 
f  92/1/1  93/2/1  82/3/1  81/4/1 
f  93/1/1  94/2/1  83/3/1  82/4/1 
f  94/1/1  95/2/1  84/3/1  83/4/1 
f  95/1/1  96/2/1  85/3/1  84/4/1 
f  96/1/1  97/2/1  86/3/1  85/4/1 
f  97/1/1  98/2/1  87/3/1  86/4/1 
f  98/1/1  99/2/1  88/3/1  87/4/1 
f  100/1/1  101/2/1  90/3/1  89/4/1 
f  101/1/1  102/2/1  91/3/1  90/4/1 
f  102/1/1  103/2/1  92/3/1  91/4/1 
f  103/1/1  104/2/1  93/3/1  92/4/1 
f  104/1/1  105/2/1  94/3/1  93/4/1 
f  105/1/1  106/2/1  95/3/1  94/4/1 
f  106/1/1  107/2/1  96/3/1  95/4/1 
f  107/1/1  108/2/1  97/3/1  96/4/1 
f  108/1/1  109/2/1  98/3/1  97/4/1 
f  109/1/1  110/2/1  99/3/1  98/4/1 
f  111/1/1  112/2/1  101/3/1  100/4/1 
f  112/1/1  113/2/1  102/3/1  101/4/1 
f  113/1/1  114/2/1  103/3/1  102/4/1 
f  114/1/1  115/2/1  104/3/1  103/4/1 
f  115/1/1  116/2/1  105/3/1  104/4/1 
f  116/1/1  117/2/1  106/3/1  105/4/1 
f  117/1/1  118/2/1  107/3/1  106/4/1 
f  118/1/1  119/2/1  108/3/1  107/4/1 
f  119/1/1  120/2/1  109/3/1  108/4/1 
f  120/1/1  121/2/1  110/3/1  109/4/1 
g mesh_[01]_[65]
f  1/5/1  2/6/1  3/7/1  4/8/1 
f  2/9/1  5/10/1  6/11/1  3/12/1 
f  5/9/1  7/10/1  8/11/1  6/12/1 
f  7/9/1  9/10/1  10/11/1  8/12/1 
f  9/9/1  11/10/1  12/11/1  10/12/1 
f  11/9/1  13/10/1  14/11/1  12/12/1 
f  13/9/1  15/10/1  16/11/1  14/12/1 
f  15/9/1  17/10/1  18/11/1  16/12/1 
f  17/9/1  19/10/1  20/11/1  18/12/1 
f  19/13/1  21/14/1  22/15/1  20/16/1 
f  23/17/1  24/18/1  2/19/1  1/20/1 
f  24/21/1  25/22/1  5/23/1  2/24/1 
f  25/21/1  26/22/1  7/23/1  5/24/1 
f  26/21/1  27/22/1  9/23/1  7/24/1 
f  27/21/1  28/22/1  11/23/1  9/24/1 
f  28/21/1  29/22/1  13/23/1  11/24/1 
f  29/21/1  30/22/1  15/23/1  13/24/1 
f  30/21/1  31/22/1  17/23/1  15/24/1 
f  31/21/1  32/22/1  19/23/1  17/24/1 
f  32/25/1  33/26/1  21/27/1  19/28/1 
g mesh_[02]_[56]
f  78/29/1  79/30/1  68/31/1  67/32/1 
f  79/33/1  80/34/1  69/35/1  68/36/1 
f  89/37/1  90/38/1  79/39/1  78/40/1 
f  90/41/1  91/42/1  80/43/1  79/44/1 
f  91/45/1  92/46/1  81/47/1  80/48/1 
g mesh_[03]_[65]
f  1/49/1  2/50/1  3/51/1  4/52/1 
f  19/53/1  21/54/1  22/55/1  20/56/1 
f  23/49/1  24/50/1  2/51/1  1/52/1 
f  32/53/1  33/54/1  21/55/1  19/56/1 
f  34/49/1  35/50/1  24/51/1  23/52/1 
f  43/53/1  44/54/1  33/55/1  32/56/1 
f  45/49/1  46/50/1  35/51/1  34/52/1 
f  54/53/1  55/54/1  44/55/1  43/56/1 
f  56/49/1  57/50/1  46/51/1  45/52/1 
f  65/53/1  66/54/1  55/55/1  54/56/1 
f  67/49/1  68/50/1  57/51/1  56/52/1 
f  76/53/1  77/54/1  66/55/1  65/56/1 
f  78/49/1  79/50/1  68/51/1  67/52/1 
f  87/53/1  88/54/1  77/55/1  76/56/1 
f  89/49/1  90/50/1  79/51/1  78/52/1 
f  98/53/1  99/54/1  88/55/1  87/56/1 
f  100/49/1  101/50/1  90/51/1  89/52/1 
f  109/53/1  110/54/1  99/55/1  98/56/1 
f  111/49/1  112/50/1  101/51/1  100/52/1 
f  120/53/1  121/54/1  110/55/1  109/56/1 
g mesh_[04]_[65]
f  100/9/1  101/10/1  90/11/1  89/12/1 
f  101/9/1  102/10/1  91/11/1  90/12/1 
f  102/9/1  103/10/1  92/11/1  91/12/1 
f  103/9/1  104/10/1  93/11/1  92/12/1 
f  104/9/1  105/10/1  94/11/1  93/12/1 
f  105/9/1  106/10/1  95/11/1  94/12/1 
f  106/9/1  107/10/1  96/11/1  95/12/1 
f  108/9/1  109/10/1  98/11/1  97/12/1 
f  109/9/1  110/10/1  99/11/1  98/12/1 
f  111/21/1  112/22/1  101/23/1  100/24/1 
f  112/21/1  113/22/1  102/23/1  101/24/1 
f  113/21/1  114/22/1  103/23/1  102/24/1 
f  114/21/1  115/22/1  104/23/1  103/24/1 
f  115/21/1  116/22/1  105/23/1  104/24/1 
f  116/21/1  117/22/1  106/23/1  105/24/1 
f  117/21/1  118/22/1  107/23/1  106/24/1 
f  119/21/1  120/22/1  109/23/1  108/24/1 
f  120/21/1  121/22/1  110/23/1  109/24/1 
g mesh_[05]_[66]
f  58/57/1  59/58/1  48/59/1  47/60/1 
f  59/61/1  60/62/1  49/63/1  48/64/1 
f  60/61/1  61/62/1  50/63/1  49/64/1 
f  61/61/1  62/62/1  51/63/1  50/64/1 
f  62/61/1  63/62/1  52/63/1  51/64/1 
f  63/65/1  64/66/1  53/67/1  52/68/1 
g mesh_[06]_[66]
f  47/69/1  48/70/1  37/71/1  36/72/1 
f  48/73/1  49/74/1  38/75/1  37/76/1 
f  49/73/1  50/74/1  39/75/1  38/76/1 
f  50/73/1  51/74/1  40/75/1  39/76/1 
f  51/73/1  52/74/1  41/75/1  40/76/1 
f  52/77/1  53/78/1  42/79/1  41/80/1 
g mesh_[07]_[56]
f  47/81/1  48/82/1  37/83/1  36/84/1 
f  48/85/1  49/86/1  38/87/1  37/88/1 
f  49/89/1  50/90/1  39/91/1  38/92/1 
f  51/93/1  52/94/1  41/95/1  40/96/1 
f  52/97/1  53/98/1  42/99/1  41/100/1 
f  62/101/1  63/102/1  52/75/1  51/103/1 
f  63/104/1  64/105/1  53/106/1  52/80/1 
g mesh_[08]_[56]
f  85/107/1  86/108/1  75/109/1  74/110/1 
g mesh_[09]_[67]
f  2/111/1  5/112/1  6/113/1  3/114/1 
f  17/115/1  19/116/1  20/117/1  18/118/1 
f  24/119/1  25/120/1  5/121/1  2/122/1 
f  31/123/1  32/124/1  19/125/1  17/126/1 
g mesh_[11]_[08]
f  47/57/1  48/127/1  37/128/1  36/8/1 
f  48/57/1  49/127/1  38/128/1  37/8/1 
f  49/57/1  50/127/1  39/128/1  38/8/1 
f  50/57/1  51/127/1  40/128/1  39/8/1 
f  51/57/1  52/127/1  41/128/1  40/8/1 
f  52/57/1  53/127/1  42/128/1  41/8/1 
g mesh_[12]_[08]
f  78/57/1  79/127/1  68/128/1  67/8/1 
f  79/57/1  80/127/1  69/128/1  68/8/1 
f  89/57/1  90/127/1  79/128/1  78/8/1 
f  90/57/1  91/127/1  80/128/1  79/8/1 
f  91/57/1  92/127/1  81/128/1  80/8/1 
g mesh_[13]_[08]
f  23/57/1  24/127/1  2/128/1  1/8/1 
f  25/57/1  26/127/1  7/128/1  5/8/1 
f  26/57/1  27/127/1  9/128/1  7/8/1 
f  27/57/1  28/127/1  11/128/1  9/8/1 
f  28/57/1  29/127/1  13/128/1  11/8/1 
f  29/57/1  30/127/1  15/128/1  13/8/1 
f  30/57/1  31/127/1  17/128/1  15/8/1 
f  32/57/1  33/127/1  21/128/1  19/8/1 
f  100/57/1  101/127/1  90/128/1  89/8/1 
f  101/57/1  102/127/1  91/128/1  90/8/1 
f  102/57/1  103/127/1  92/128/1  91/8/1 
f  103/57/1  104/127/1  93/128/1  92/8/1 
f  104/57/1  105/127/1  94/128/1  93/8/1 
f  105/57/1  106/127/1  95/128/1  94/8/1 
f  106/57/1  107/127/1  96/128/1  95/8/1 
f  108/57/1  109/127/1  98/128/1  97/8/1 
f  109/57/1  110/127/1  99/128/1  98/8/1 
f  117/57/1  118/127/1  107/128/1  106/8/1 
f  119/57/1  120/127/1  109/128/1  108/8/1 
g mesh_[14]_[08]
f  31/57/1  32/127/1  19/128/1  17/8/1 
g mesh_[15]_[66]
f  36/129/1  37/130/1  26/131/1  25/132/1 
f  37/133/1  38/94/1  27/134/1  26/135/1 
f  38/133/1  39/94/1  28/134/1  27/135/1 
f  39/133/1  40/94/1  29/134/1  28/135/1 
f  40/133/1  41/94/1  30/134/1  29/135/1 
f  41/97/1  42/136/1  31/137/1  30/138/1 
g mesh_[16]_[56]
f  36/139/1  37/140/1  26/141/1  25/142/1 
f  37/143/1  38/144/1  27/145/1  26/146/1 
f  38/147/1  39/148/1  28/149/1  27/150/1 
f  40/151/1  41/152/1  30/153/1  29/154/1 
f  41/155/1  42/156/1  31/157/1  30/158/1 
f  47/159/1  48/160/1  37/161/1  36/162/1 
f  48/163/1  49/164/1  38/165/1  37/166/1 
f  49/167/1  50/168/1  39/169/1  38/132/1 
f  50/170/1  51/171/1  40/131/1  39/172/1 
f  51/173/1  52/174/1  41/175/1  40/176/1 
f  52/177/1  53/178/1  42/179/1  41/180/1 
